<svg width="2295" height="1960" viewBox="0 0 2295 1960" fill="none" xmlns="http://www.w3.org/2000/svg">
<g id="Logo">
<g id="letra_G">
<path d="M2244.76 827.466H1281.61L1106.35 1957.49H822.133L949.384 1122.35L1036.25 548.58H2292L2244.76 827.466Z" fill="url(#paint0_linear_114_17)"/>
<path d="M1879 1390.57H1501.06H1490.39L1533.06 1123.12H2192.94L2066.45 1957.49H1405.05L1447.72 1697.65H1833.29L1879 1390.57Z" fill="url(#paint1_linear_114_17)"/>
<path d="M2244.76 827.466H1281.61L1106.35 1957.49H822.133L949.384 1122.35L1036.25 548.58H2292L2244.76 827.466Z" stroke="#14CF93" stroke-width="5"/>
<path d="M1879 1390.57H1501.06H1490.39L1533.06 1123.12H2192.94L2066.45 1957.49H1405.05L1447.72 1697.65H1833.29L1879 1390.57Z" stroke="#14CF93" stroke-width="5"/>
</g>
<path id="letra_E" d="M365.704 827.467L321.509 1124.64H952.432L909.761 1395.91H3L214.832 3H1255.7L1208.46 278.838H446.475L408.376 551.628H781.748L737.553 827.467H365.704Z" fill="url(#paint2_radial_114_17)" stroke="white" stroke-width="5"/>
</g>
<defs>
<linearGradient id="paint0_linear_114_17" x1="1842.43" y1="1957.49" x2="568.392" y2="907.475" gradientUnits="userSpaceOnUse">
<stop stop-color="#14CF93"/>
<stop offset="1" stop-color="#14CF93" stop-opacity="0"/>
</linearGradient>
<linearGradient id="paint1_linear_114_17" x1="1842.43" y1="1957.49" x2="568.392" y2="907.475" gradientUnits="userSpaceOnUse">
<stop stop-color="#14CF93"/>
<stop offset="1" stop-color="#14CF93" stop-opacity="0"/>
</linearGradient>
<radialGradient id="paint2_radial_114_17" cx="0" cy="0" r="1" gradientUnits="userSpaceOnUse" gradientTransform="translate(172.16 -37.3852) rotate(57.4029) scale(2127.28 1913.15)">
<stop stop-color="#FDFDFD"/>
<stop offset="1" stop-color="#EEEEEE" stop-opacity="0"/>
</radialGradient>
</defs>
</svg>
