<svg width="500" height="706" viewBox="0 0 500 706" fill="none" xmlns="http://www.w3.org/2000/svg">
<rect width="500" height="706" fill="#EDEAEF"/>
<g filter="url(#filter0_dddddd_210_316)">
<path fill-rule="evenodd" clip-rule="evenodd" d="M196.199 311.293V303.649C196.199 303.65 196.199 303.65 196.2 303.65C196.201 303.651 196.205 303.639 196.213 303.615C196.243 303.519 196.333 303.23 196.599 302.769C196.975 302.119 197.594 301.322 198.513 300.568C200.297 299.105 203.343 297.697 208.24 298.057C228.424 299.538 239.349 313.367 239.349 323.237V387.182C239.349 387.579 239.305 387.798 239.273 387.904C239.162 387.938 238.938 387.983 238.534 387.983H226.19C225.786 387.983 225.561 387.938 225.451 387.904C225.419 387.798 225.375 387.579 225.375 387.182V328.156C225.375 323.858 223.277 319.676 220.291 316.619C217.293 313.551 213.081 311.293 208.46 311.293H196.199ZM239.245 387.979C239.241 387.984 239.24 387.987 239.24 387.987C239.24 387.987 239.241 387.987 239.242 387.985C239.242 387.984 239.243 387.982 239.245 387.979ZM239.344 387.878C239.354 387.87 239.361 387.867 239.361 387.867C239.362 387.868 239.356 387.872 239.344 387.878ZM225.366 387.869C225.364 387.868 225.362 387.867 225.362 387.867C225.362 387.868 225.363 387.869 225.366 387.87C225.369 387.872 225.373 387.875 225.38 387.878C225.374 387.873 225.369 387.871 225.366 387.869ZM225.479 387.979C225.482 387.984 225.483 387.987 225.483 387.987C225.483 387.987 225.481 387.985 225.479 387.979ZM208.46 317.293H196.199V387.182C196.199 388.893 195.894 390.896 194.368 392.347C192.878 393.764 190.911 393.983 189.383 393.983H176.815C175.378 393.983 173.56 393.711 172.095 392.434C170.547 391.086 170 389.16 170 387.182V327.485C170 324.055 171.912 320.081 174.56 317.065C177.248 314.004 181.257 311.293 186.016 311.293H190.199V303.561C190.199 302.301 190.734 300.927 191.404 299.768C192.132 298.507 193.218 297.151 194.708 295.929C197.743 293.44 202.327 291.606 208.68 292.073C231.138 293.721 245.349 309.429 245.349 323.237V387.182C245.349 388.809 244.983 390.658 243.615 392.083C242.225 393.531 240.339 393.983 238.534 393.983H226.19C224.385 393.983 222.499 393.531 221.108 392.083C219.74 390.658 219.375 388.809 219.375 387.182V328.156C219.375 325.763 218.152 323.015 216 320.813C213.859 318.622 211.114 317.293 208.46 317.293ZM186.016 317.293H190.199V387.182C190.199 387.532 190.176 387.776 190.151 387.938C189.985 387.963 189.737 387.983 189.383 387.983H176.815C176.441 387.983 176.208 387.945 176.079 387.909L176.077 387.908C176.045 387.797 176 387.571 176 387.182V327.485C176 325.997 177.005 323.375 179.069 321.024C181.093 318.719 183.593 317.293 186.016 317.293ZM304.396 393.773V401.417C304.396 401.416 304.395 401.416 304.395 401.416C304.393 401.415 304.39 401.427 304.382 401.451C304.352 401.547 304.262 401.836 303.996 402.297C303.62 402.947 303 403.744 302.081 404.498C300.298 405.961 297.252 407.369 292.354 407.009C272.171 405.528 261.246 391.699 261.246 381.829V317.884C261.246 317.487 261.29 317.268 261.322 317.162C261.432 317.128 261.657 317.083 262.061 317.083H274.405C274.809 317.083 275.034 317.128 275.144 317.162C275.176 317.268 275.22 317.487 275.22 317.884L275.22 376.91C275.22 381.208 277.317 385.391 280.304 388.447C283.301 391.515 287.514 393.773 292.135 393.773H304.396ZM261.354 317.079C261.354 317.079 261.353 317.082 261.35 317.087C261.353 317.081 261.354 317.079 261.354 317.079ZM261.251 317.188C261.24 317.196 261.234 317.199 261.233 317.199C261.233 317.198 261.238 317.194 261.251 317.188ZM275.233 317.199C275.232 317.199 275.226 317.196 275.215 317.188C275.228 317.194 275.233 317.198 275.233 317.199ZM275.116 317.087C275.113 317.082 275.111 317.079 275.112 317.079C275.112 317.079 275.113 317.081 275.116 317.087ZM292.135 387.773H304.396V317.884C304.396 316.173 304.701 314.17 306.226 312.719C307.717 311.302 309.683 311.083 311.211 311.083H323.779C325.216 311.083 327.035 311.355 328.5 312.632C330.047 313.981 330.595 315.906 330.595 317.884V377.581C330.595 381.011 328.682 384.985 326.034 388.001C323.346 391.062 319.338 393.773 314.579 393.773H310.396V401.505C310.396 402.765 309.861 404.139 309.191 405.298C308.463 406.559 307.377 407.915 305.886 409.137C302.852 411.626 298.267 413.46 291.915 412.993C269.457 411.345 255.246 395.637 255.246 381.829V317.884C255.246 316.257 255.611 314.408 256.98 312.983C258.37 311.535 260.256 311.083 262.061 311.083H274.405C276.21 311.083 278.096 311.535 279.486 312.983C280.854 314.408 281.22 316.257 281.22 317.884L281.22 376.91C281.22 379.303 282.443 382.051 284.595 384.253C286.736 386.444 289.481 387.773 292.135 387.773ZM314.579 387.773H310.396V317.884C310.396 317.534 310.418 317.29 310.444 317.128C310.61 317.103 310.857 317.083 311.211 317.083H323.779C324.153 317.083 324.387 317.121 324.515 317.157L324.518 317.158C324.55 317.269 324.595 317.495 324.595 317.884V377.581C324.595 379.069 323.59 381.691 321.526 384.042C319.501 386.347 317.002 387.773 314.579 387.773Z" fill="url(#paint0_linear_210_316)"/>
</g>
<defs>
<filter id="filter0_dddddd_210_316" x="119" y="292" width="262.595" height="228.066" filterUnits="userSpaceOnUse" color-interpolation-filters="sRGB">
<feFlood flood-opacity="0" result="BackgroundImageFix"/>
<feColorMatrix in="SourceAlpha" type="matrix" values="0 0 0 0 0 0 0 0 0 0 0 0 0 0 0 0 0 0 127 0" result="hardAlpha"/>
<feOffset dy="1.54966"/>
<feGaussianBlur stdDeviation="0.70565"/>
<feColorMatrix type="matrix" values="0 0 0 0 0.65098 0 0 0 0 0.65098 0 0 0 0 0.654902 0 0 0 0.151819 0"/>
<feBlend mode="normal" in2="BackgroundImageFix" result="effect1_dropShadow_210_316"/>
<feColorMatrix in="SourceAlpha" type="matrix" values="0 0 0 0 0 0 0 0 0 0 0 0 0 0 0 0 0 0 127 0" result="hardAlpha"/>
<feOffset dy="3.72406"/>
<feGaussianBlur stdDeviation="1.69578"/>
<feColorMatrix type="matrix" values="0 0 0 0 0.65098 0 0 0 0 0.65098 0 0 0 0 0.654902 0 0 0 0.218102 0"/>
<feBlend mode="normal" in2="effect1_dropShadow_210_316" result="effect2_dropShadow_210_316"/>
<feColorMatrix in="SourceAlpha" type="matrix" values="0 0 0 0 0 0 0 0 0 0 0 0 0 0 0 0 0 0 127 0" result="hardAlpha"/>
<feOffset dy="7.01207"/>
<feGaussianBlur stdDeviation="3.193"/>
<feColorMatrix type="matrix" values="0 0 0 0 0.65098 0 0 0 0 0.65098 0 0 0 0 0.654902 0 0 0 0.27 0"/>
<feBlend mode="normal" in2="effect2_dropShadow_210_316" result="effect3_dropShadow_210_316"/>
<feColorMatrix in="SourceAlpha" type="matrix" values="0 0 0 0 0 0 0 0 0 0 0 0 0 0 0 0 0 0 127 0" result="hardAlpha"/>
<feOffset dy="12.5083"/>
<feGaussianBlur stdDeviation="5.69576"/>
<feColorMatrix type="matrix" values="0 0 0 0 0.65098 0 0 0 0 0.65098 0 0 0 0 0.654902 0 0 0 0.321898 0"/>
<feBlend mode="normal" in2="effect3_dropShadow_210_316" result="effect4_dropShadow_210_316"/>
<feColorMatrix in="SourceAlpha" type="matrix" values="0 0 0 0 0 0 0 0 0 0 0 0 0 0 0 0 0 0 127 0" result="hardAlpha"/>
<feOffset dy="23.3955"/>
<feGaussianBlur stdDeviation="10.6533"/>
<feColorMatrix type="matrix" values="0 0 0 0 0.65098 0 0 0 0 0.65098 0 0 0 0 0.654902 0 0 0 0.388181 0"/>
<feBlend mode="normal" in2="effect4_dropShadow_210_316" result="effect5_dropShadow_210_316"/>
<feColorMatrix in="SourceAlpha" type="matrix" values="0 0 0 0 0 0 0 0 0 0 0 0 0 0 0 0 0 0 127 0" result="hardAlpha"/>
<feOffset dy="56"/>
<feGaussianBlur stdDeviation="25.5"/>
<feColorMatrix type="matrix" values="0 0 0 0 0.65098 0 0 0 0 0.65098 0 0 0 0 0.654902 0 0 0 0.54 0"/>
<feBlend mode="normal" in2="effect5_dropShadow_210_316" result="effect6_dropShadow_210_316"/>
<feBlend mode="normal" in="SourceGraphic" in2="effect6_dropShadow_210_316" result="shape"/>
</filter>
<linearGradient id="paint0_linear_210_316" x1="305.702" y1="308.344" x2="232.318" y2="420.55" gradientUnits="userSpaceOnUse">
<stop stop-color="#A950C4"/>
<stop offset="1" stop-color="#82269E"/>
</linearGradient>
</defs>
</svg>
