<svg width="500" height="706" viewBox="0 0 500 706" fill="none" xmlns="http://www.w3.org/2000/svg">
<g clip-path="url(#clip0_210_324)">
<rect width="500" height="706" fill="url(#paint0_linear_210_324)"/>
<g filter="url(#filter0_dddddd_210_324)">
<path fill-rule="evenodd" clip-rule="evenodd" d="M239.65 338.79L238.693 337.014C228.992 342.661 206.53 356.225 194.287 365.297C194.378 372.949 195.189 393.116 197.703 412.572C198.842 422.273 203.524 446.321 213.143 464.903C207.632 457.57 195.326 437.166 190.188 414.212C188.412 407.699 184.368 388.142 182.4 362.018C192.875 355.96 218.581 342.042 237.6 334.828L236.234 331.958C222.16 335.83 189.286 345.649 170.376 353.956C170.786 363.794 173.218 389.618 179.667 414.212C182.999 426.919 192.183 459.629 218.198 491C217.84 490.63 217.403 490.19 216.892 489.675C211.359 484.099 197.009 469.64 176.798 438.123C166.687 419.404 159.992 397.816 151.521 346.442C171.469 340.02 198.659 332.915 235.414 329.089L234.321 326.903C220.657 326.174 188.74 325.673 170.376 329.499C168.281 315.517 169.037 283.071 185.543 265.145C181.899 275.119 175.104 299.85 180.351 318.978C193.695 318.887 223.09 319.443 233.911 322.394L235.687 320.071C227.671 315.289 209.372 305.315 200.299 303.675C200.269 303.457 200.24 303.237 200.209 303.015C197.604 283.852 193.514 253.766 221.204 215C214.509 228.8 203.688 262.111 210.683 296.98L237.873 316.792L239.923 313.923L231.588 305.315C233.091 302.855 237.573 297.363 243.475 295.067C240.652 298.438 236.835 305.889 244.158 308.731H254.953C258.095 307.911 262.631 304.03 255.636 295.067C258.505 296.388 264.817 300.287 267.113 305.315L260.828 312.83L262.194 315.562L288.428 297.117C291.525 283.772 294.057 248.694 279.41 215.137C280.588 217.307 281.723 219.375 282.812 221.362C297.632 248.392 304.077 260.145 299.495 303.675C294.349 304.768 280.421 309.523 265.883 319.798L266.703 321.574C279.182 320.39 307.174 318.268 319.307 319.251C321.402 309.505 323.324 285.038 314.252 265.145C328.598 285.366 331.467 300.123 329.008 329.909C318.669 327.905 291.734 324.498 266.703 326.903L265.883 329.089C284.283 331.412 326.467 338.134 348 346.442C347.397 349.671 346.812 352.837 346.238 355.941C340.961 384.488 336.659 407.757 328.598 426.099C314.934 452.376 303.266 465.876 289.073 482.298C286.661 485.089 284.176 487.964 281.596 491C303.594 460.531 326.385 422.273 329.008 353.956C314.525 348.172 281.05 335.675 263.014 331.958L261.784 334.828C276.541 341.067 308.376 355.186 316.574 361.745C316.484 362.96 316.395 364.181 316.305 365.407C314.233 393.816 311.942 425.216 286.925 464.903C294.713 447.824 303.512 428.367 305.37 365.297C294.576 358.055 270.556 342.261 260.828 337.014L259.735 338.79C264.653 341.933 276.076 349.83 282.416 356.279C282.826 358.921 283.4 368.768 282.416 387.022C277.725 395.539 264.626 413.966 249.76 419.541C242.154 416.444 225.057 405.604 217.515 387.022C216.923 382.65 215.875 370.434 216.422 356.552C220.976 352.408 231.998 343.053 239.65 338.79ZM264.245 345.894L264.302 345.941C267.201 348.334 273.775 353.76 276.815 357.235C276.77 362.928 276.351 375.926 275.586 381.829C272.17 388.57 261.868 403.444 249.625 409.019C243.34 405.74 228.748 395.274 223.938 381.829C223.913 381.566 223.886 381.279 223.856 380.97C223.399 376.19 222.435 366.098 222.435 357.781C225.122 354.912 231.344 348.518 234.732 345.894C233.047 348.08 229.076 353.518 226.671 357.781C226.443 360.469 226.593 367.125 227.491 372.811C228.31 378.003 235.279 392.35 249.625 398.362C256.047 395.713 269.219 386.896 271.623 372.811C272.033 370.898 272.771 365.624 272.443 358.191C271 355.978 268.473 352.207 266.436 349.168C265.58 347.891 264.811 346.743 264.245 345.894Z" fill="url(#paint1_linear_210_324)"/>
<path d="M238.693 337.014L238.144 336.071C238.4 335.923 238.705 335.884 238.989 335.964C239.274 336.044 239.513 336.237 239.653 336.497L238.693 337.014ZM239.65 338.79L240.61 338.273C240.893 338.798 240.701 339.453 240.18 339.743L239.65 338.79ZM194.287 365.297L193.197 365.31C193.192 364.96 193.357 364.629 193.638 364.421L194.287 365.297ZM197.703 412.572L198.785 412.433L198.786 412.445L197.703 412.572ZM213.143 464.903L214.111 464.402C214.372 464.905 214.203 465.525 213.723 465.826C213.243 466.128 212.611 466.012 212.271 465.558L213.143 464.903ZM190.188 414.212L191.24 413.925C191.245 413.941 191.249 413.957 191.253 413.974L190.188 414.212ZM182.4 362.018L181.313 362.1C181.281 361.682 181.492 361.283 181.854 361.074L182.4 362.018ZM237.6 334.828L238.585 334.359C238.716 334.634 238.726 334.951 238.612 335.234C238.499 335.517 238.272 335.739 237.987 335.847L237.6 334.828ZM236.234 331.958L235.944 330.907C236.454 330.767 236.991 331.012 237.218 331.49L236.234 331.958ZM170.376 353.956L169.287 354.002C169.268 353.553 169.526 353.139 169.938 352.958L170.376 353.956ZM179.667 414.212L178.612 414.489L178.612 414.489L179.667 414.212ZM218.198 491L219.038 490.304C219.412 490.755 219.362 491.421 218.926 491.812C218.49 492.203 217.822 492.18 217.415 491.759L218.198 491ZM216.892 489.675L217.666 488.906L217.666 488.906L216.892 489.675ZM176.798 438.123L175.88 438.712C175.865 438.689 175.851 438.665 175.838 438.641L176.798 438.123ZM151.521 346.442L150.445 346.619C150.357 346.086 150.672 345.569 151.187 345.403L151.521 346.442ZM235.414 329.089L236.389 328.601C236.549 328.922 236.542 329.3 236.37 329.614C236.198 329.927 235.883 330.137 235.527 330.174L235.414 329.089ZM234.321 326.903L234.379 325.814C234.771 325.835 235.121 326.064 235.296 326.415L234.321 326.903ZM170.376 329.499L170.599 330.567C170.305 330.628 169.999 330.565 169.753 330.394C169.507 330.223 169.342 329.957 169.298 329.661L170.376 329.499ZM185.543 265.145L184.74 264.406C185.093 264.023 185.666 263.943 186.11 264.213C186.554 264.484 186.745 265.03 186.567 265.519L185.543 265.145ZM180.351 318.978L180.358 320.069C179.864 320.072 179.429 319.743 179.299 319.267L180.351 318.978ZM233.911 322.394L234.777 323.057C234.508 323.409 234.052 323.563 233.624 323.446L233.911 322.394ZM235.687 320.071L236.246 319.135C236.513 319.294 236.699 319.56 236.758 319.865C236.817 320.171 236.742 320.487 236.554 320.734L235.687 320.071ZM200.299 303.675L200.105 304.749C199.64 304.664 199.282 304.29 199.218 303.822L200.299 303.675ZM200.209 303.015L199.129 303.162L199.129 303.162L200.209 303.015ZM221.204 215L220.316 214.366C220.646 213.905 221.274 213.773 221.761 214.062C222.248 214.352 222.433 214.966 222.185 215.476L221.204 215ZM210.683 296.98L210.041 297.862C209.82 297.701 209.668 297.463 209.614 297.195L210.683 296.98ZM237.873 316.792L238.761 317.426C238.592 317.663 238.335 317.822 238.048 317.869C237.76 317.915 237.466 317.845 237.231 317.674L237.873 316.792ZM239.923 313.923L240.706 313.164C241.073 313.542 241.116 314.128 240.81 314.557L239.923 313.923ZM231.588 305.315L230.805 306.074C230.459 305.716 230.398 305.17 230.658 304.746L231.588 305.315ZM243.475 295.067L243.08 294.051C243.544 293.87 244.071 294.027 244.362 294.432C244.652 294.836 244.631 295.386 244.311 295.768L243.475 295.067ZM244.158 308.731V309.821C244.024 309.821 243.89 309.796 243.764 309.747L244.158 308.731ZM254.953 308.731L255.228 309.786C255.138 309.809 255.045 309.821 254.953 309.821V308.731ZM255.636 295.067L254.776 295.738C254.466 295.342 254.468 294.785 254.781 294.39C255.093 293.996 255.635 293.866 256.092 294.077L255.636 295.067ZM267.113 305.315L268.105 304.862C268.279 305.244 268.219 305.692 267.95 306.015L267.113 305.315ZM260.828 312.83L259.852 313.317C259.658 312.929 259.713 312.463 259.991 312.13L260.828 312.83ZM262.194 315.562L262.821 316.455C262.562 316.637 262.235 316.698 261.927 316.62C261.619 316.542 261.361 316.334 261.219 316.05L262.194 315.562ZM288.428 297.117L289.49 297.363C289.429 297.625 289.275 297.855 289.055 298.009L288.428 297.117ZM279.41 215.137L278.41 215.573C278.177 215.038 278.406 214.413 278.931 214.157C279.456 213.9 280.09 214.103 280.368 214.616L279.41 215.137ZM282.812 221.362L283.768 220.837L283.768 220.837L282.812 221.362ZM299.495 303.675L300.58 303.789C300.53 304.259 300.184 304.644 299.722 304.742L299.495 303.675ZM265.883 319.798L264.893 320.255C264.673 319.778 264.824 319.211 265.254 318.907L265.883 319.798ZM266.703 321.574L266.806 322.66C266.345 322.704 265.907 322.452 265.713 322.031L266.703 321.574ZM319.307 319.251L320.373 319.481C320.258 320.016 319.764 320.383 319.219 320.339L319.307 319.251ZM314.252 265.145L313.259 265.597C313.026 265.085 313.22 264.48 313.707 264.199C314.195 263.919 314.816 264.055 315.141 264.513L314.252 265.145ZM329.008 329.909L330.095 329.999C330.069 330.308 329.914 330.591 329.667 330.778C329.42 330.965 329.105 331.039 328.8 330.98L329.008 329.909ZM266.703 326.903L265.682 326.52C265.828 326.13 266.184 325.857 266.599 325.817L266.703 326.903ZM265.883 329.089L265.747 330.171C265.416 330.129 265.122 329.938 264.95 329.653C264.777 329.367 264.745 329.019 264.862 328.706L265.883 329.089ZM348 346.442L348.393 345.424C348.883 345.613 349.169 346.125 349.072 346.642L348 346.442ZM346.238 355.941L347.31 356.139L347.31 356.139L346.238 355.941ZM328.598 426.099L329.596 426.538C329.587 426.56 329.577 426.581 329.566 426.602L328.598 426.099ZM289.073 482.298L289.898 483.011L289.898 483.011L289.073 482.298ZM281.596 491L282.427 491.706C282.048 492.152 281.384 492.22 280.923 491.858C280.462 491.497 280.369 490.836 280.712 490.362L281.596 491ZM329.008 353.956L329.412 352.944C329.841 353.115 330.115 353.537 330.098 353.998L329.008 353.956ZM263.014 331.958L262.011 331.529C262.216 331.053 262.727 330.786 263.234 330.89L263.014 331.958ZM261.784 334.828L261.359 335.832C261.092 335.719 260.881 335.504 260.773 335.235C260.664 334.966 260.667 334.665 260.782 334.398L261.784 334.828ZM316.574 361.745L317.256 360.893C317.537 361.118 317.689 361.467 317.662 361.825L316.574 361.745ZM316.305 365.407L315.218 365.328L315.218 365.328L316.305 365.407ZM286.925 464.903L287.847 465.485C287.541 465.97 286.911 466.135 286.407 465.863C285.902 465.59 285.694 464.973 285.932 464.45L286.925 464.903ZM305.37 365.297L305.978 364.391C306.289 364.6 306.472 364.954 306.46 365.329L305.37 365.297ZM260.828 337.014L259.899 336.442C260.202 335.95 260.837 335.779 261.345 336.054L260.828 337.014ZM259.735 338.79L259.147 339.709C258.646 339.389 258.494 338.725 258.806 338.218L259.735 338.79ZM282.416 356.279L283.194 355.515C283.354 355.677 283.459 355.886 283.494 356.112L282.416 356.279ZM282.416 387.022L283.505 387.08C283.496 387.244 283.45 387.404 283.371 387.548L282.416 387.022ZM249.76 419.541L250.143 420.562C249.887 420.658 249.603 420.654 249.349 420.551L249.76 419.541ZM217.515 387.022L216.504 387.432C216.47 387.347 216.446 387.259 216.434 387.168L217.515 387.022ZM216.422 356.552L215.332 356.51C215.343 356.218 215.472 355.942 215.688 355.746L216.422 356.552ZM264.302 345.941L264.996 345.1L264.996 345.1L264.302 345.941ZM264.245 345.894L263.338 346.499C263.038 346.049 263.113 345.447 263.514 345.085C263.916 344.722 264.522 344.709 264.939 345.053L264.245 345.894ZM276.815 357.235L277.636 356.517C277.812 356.718 277.908 356.976 277.906 357.244L276.815 357.235ZM275.586 381.829L276.667 381.969C276.651 382.092 276.615 382.211 276.558 382.322L275.586 381.829ZM249.625 409.019L250.077 410.012C249.771 410.151 249.419 410.141 249.121 409.986L249.625 409.019ZM223.938 381.829L222.911 382.196C222.881 382.111 222.861 382.022 222.852 381.932L223.938 381.829ZM223.856 380.97L224.942 380.866L224.942 380.866L223.856 380.97ZM222.435 357.781H221.345C221.345 357.505 221.45 357.238 221.639 357.036L222.435 357.781ZM234.732 345.894L234.065 345.032C234.498 344.696 235.114 344.735 235.503 345.122C235.891 345.51 235.931 346.126 235.596 346.56L234.732 345.894ZM226.671 357.781L225.584 357.689C225.597 357.533 225.644 357.382 225.721 357.246L226.671 357.781ZM227.491 372.811L226.413 372.981L226.413 372.981L227.491 372.811ZM249.625 398.362L250.041 399.37C249.773 399.481 249.471 399.48 249.204 399.368L249.625 398.362ZM271.623 372.811L270.548 372.628C270.551 372.613 270.554 372.598 270.557 372.583L271.623 372.811ZM272.443 358.191L273.357 357.596C273.463 357.759 273.524 357.948 273.533 358.143L272.443 358.191ZM266.436 349.168L265.53 349.775L265.53 349.775L266.436 349.168ZM239.653 336.497L240.61 338.273L238.689 339.307L237.733 337.531L239.653 336.497ZM193.638 364.421C205.934 355.308 228.444 341.718 238.144 336.071L239.242 337.956C229.54 343.604 207.125 357.141 194.937 366.173L193.638 364.421ZM196.621 412.712C194.101 393.203 193.288 372.992 193.197 365.31L195.378 365.284C195.468 372.905 196.277 393.028 198.785 412.433L196.621 412.712ZM212.174 465.404C202.471 446.659 197.766 422.467 196.62 412.699L198.786 412.445C199.917 422.08 204.577 445.983 214.111 464.402L212.174 465.404ZM191.253 413.974C196.348 436.739 208.57 457.003 214.015 464.248L212.271 465.558C206.694 458.137 194.304 437.594 189.124 414.45L191.253 413.974ZM183.488 361.936C185.451 388.002 189.485 407.489 191.24 413.925L189.136 414.499C187.339 407.909 183.284 388.282 181.313 362.1L183.488 361.936ZM237.987 335.847C219.053 343.029 193.41 356.911 182.946 362.962L181.854 361.074C192.341 355.01 218.108 341.055 237.213 333.808L237.987 335.847ZM237.218 331.49L238.585 334.359L236.615 335.297L235.249 332.427L237.218 331.49ZM169.938 352.958C188.928 344.616 221.87 334.778 235.944 330.907L236.523 333.01C222.451 336.881 189.645 346.683 170.815 354.955L169.938 352.958ZM178.612 414.489C172.139 389.801 169.699 363.896 169.287 354.002L171.466 353.911C171.874 363.692 174.298 389.435 180.722 413.935L178.612 414.489ZM217.359 491.696C191.19 460.14 181.957 427.245 178.612 414.489L180.722 413.935C184.041 426.593 193.176 459.117 219.038 490.304L217.359 491.696ZM217.666 488.906C218.176 489.42 218.617 489.865 218.981 490.241L217.415 491.759C217.062 491.394 216.631 490.96 216.117 490.443L217.666 488.906ZM177.716 437.534C197.875 468.971 212.172 483.37 217.666 488.906L216.117 490.443C210.545 484.828 196.143 470.309 175.88 438.712L177.716 437.534ZM152.597 346.264C161.064 397.611 167.736 419.051 177.758 437.604L175.838 438.641C165.638 419.757 158.921 398.021 150.445 346.619L152.597 346.264ZM235.527 330.174C198.86 333.99 171.745 341.077 151.855 347.48L151.187 345.403C171.194 338.963 198.459 331.839 235.301 328.004L235.527 330.174ZM235.296 326.415L236.389 328.601L234.438 329.577L233.345 327.391L235.296 326.415ZM170.154 328.431C188.671 324.574 220.717 325.085 234.379 325.814L234.263 327.992C220.598 327.263 188.809 326.773 170.599 330.567L170.154 328.431ZM186.345 265.883C178.297 274.624 174.034 286.978 172.06 298.978C170.089 310.965 170.424 322.458 171.455 329.337L169.298 329.661C168.234 322.558 167.899 310.837 169.908 298.624C171.915 286.424 176.283 273.591 184.74 264.406L186.345 265.883ZM179.299 319.267C176.618 309.492 177.025 298.354 178.535 288.464C180.046 278.56 182.676 269.813 184.518 264.77L186.567 265.519C184.766 270.45 182.177 279.056 180.691 288.793C179.203 298.544 178.837 309.336 181.402 318.69L179.299 319.267ZM233.624 323.446C228.347 322.007 218.412 321.132 208.025 320.635C197.679 320.139 187.015 320.023 180.358 320.069L180.343 317.888C187.031 317.842 197.736 317.958 208.129 318.456C218.48 318.951 228.653 319.83 234.198 321.342L233.624 323.446ZM236.554 320.734L234.777 323.057L233.045 321.732L234.821 319.409L236.554 320.734ZM200.493 302.602C205.198 303.452 212.166 306.423 218.87 309.716C225.612 313.027 232.217 316.731 236.246 319.135L235.128 321.008C231.141 318.629 224.589 314.955 217.909 311.674C211.19 308.374 204.473 305.538 200.105 304.749L200.493 302.602ZM201.29 302.868C201.32 303.09 201.35 303.31 201.38 303.529L199.218 303.822C199.189 303.604 199.159 303.384 199.129 303.162L201.29 302.868ZM222.091 215.634C208.345 234.879 202.513 251.929 200.426 266.513C198.336 281.112 199.988 293.291 201.29 302.869L199.129 303.162C197.826 293.577 196.13 281.131 198.266 266.204C200.405 251.264 206.373 233.887 220.316 214.366L222.091 215.634ZM209.614 297.195C202.556 262.015 213.464 228.454 220.223 214.524L222.185 215.476C215.553 229.146 204.819 262.208 211.753 296.766L209.614 297.195ZM237.231 317.674L210.041 297.862L211.326 296.099L238.516 315.911L237.231 317.674ZM240.81 314.557L238.761 317.426L236.986 316.158L239.035 313.289L240.81 314.557ZM232.372 304.556L240.706 313.164L239.139 314.681L230.805 306.074L232.372 304.556ZM243.871 296.084C238.28 298.258 233.958 303.528 232.519 305.884L230.658 304.746C232.224 302.183 236.866 296.467 243.08 294.051L243.871 296.084ZM243.764 309.747C241.748 308.965 240.384 307.817 239.608 306.393C238.836 304.979 238.713 303.42 238.933 301.937C239.366 299.016 241.165 296.126 242.639 294.367L244.311 295.768C242.962 297.378 241.44 299.9 241.09 302.257C240.919 303.413 241.038 304.461 241.522 305.348C242.001 306.226 242.907 307.075 244.553 307.714L243.764 309.747ZM254.953 309.821H244.158V307.64H254.953V309.821ZM256.495 294.396C260.082 298.992 260.942 302.573 260.141 305.264C259.343 307.946 257.024 309.318 255.228 309.786L254.677 307.675C256.024 307.324 257.544 306.346 258.051 304.642C258.555 302.947 258.185 300.106 254.776 295.738L256.495 294.396ZM266.121 305.768C265.075 303.478 263.074 301.375 260.911 299.654C258.759 297.944 256.539 296.684 255.18 296.058L256.092 294.077C257.601 294.772 259.972 296.121 262.268 297.947C264.552 299.764 266.855 302.123 268.105 304.862L266.121 305.768ZM259.991 312.13L266.276 304.615L267.95 306.015L261.664 313.529L259.991 312.13ZM261.219 316.05L259.852 313.317L261.803 312.342L263.17 315.075L261.219 316.05ZM289.055 298.009L262.821 316.455L261.567 314.67L287.8 296.225L289.055 298.009ZM280.41 214.7C295.172 248.521 292.627 283.848 289.49 297.363L287.365 296.87C290.423 283.697 292.943 248.867 278.41 215.573L280.41 214.7ZM281.856 221.886C280.767 219.9 279.631 217.829 278.452 215.657L280.368 214.616C281.546 216.784 282.679 218.851 283.768 220.837L281.856 221.886ZM298.41 303.561C300.696 281.85 300.218 268.173 297.37 256.591C294.519 244.996 289.279 235.426 281.856 221.886L283.768 220.837C291.165 234.327 296.558 244.149 299.489 256.071C302.423 268.006 302.876 281.97 300.58 303.789L298.41 303.561ZM265.254 318.907C279.911 308.548 293.975 303.733 299.268 302.608L299.722 304.742C294.722 305.804 280.931 310.498 266.513 320.689L265.254 318.907ZM265.713 322.031L264.893 320.255L266.873 319.341L267.693 321.117L265.713 322.031ZM319.219 320.339C307.2 319.364 279.311 321.473 266.806 322.66L266.6 320.488C279.053 319.307 307.147 317.171 319.395 318.164L319.219 320.339ZM315.244 264.692C324.452 284.884 322.493 309.617 320.373 319.481L318.241 319.022C320.311 309.392 322.195 285.192 313.259 265.597L315.244 264.692ZM327.921 329.819C329.148 314.963 329.035 303.957 326.867 294.176C324.704 284.417 320.478 275.806 313.362 265.776L315.141 264.513C322.372 274.705 326.753 283.583 328.997 293.704C331.235 303.804 331.328 315.068 330.095 329.999L327.921 329.819ZM266.599 325.817C291.766 323.399 318.811 326.822 329.215 328.838L328.8 330.98C318.527 328.988 291.702 325.597 266.807 327.989L266.599 325.817ZM264.862 328.706L265.682 326.52L267.724 327.286L266.904 329.472L264.862 328.706ZM347.607 347.459C326.215 339.206 284.158 332.495 265.747 330.171L266.02 328.007C284.408 330.328 326.718 337.062 348.393 345.424L347.607 347.459ZM345.165 355.742C345.739 352.639 346.325 349.472 346.928 346.241L349.072 346.642C348.469 349.87 347.884 353.035 347.31 356.139L345.165 355.742ZM327.6 425.66C335.598 407.46 339.88 384.333 345.165 355.742L347.31 356.139C342.041 384.643 337.72 408.055 329.596 426.538L327.6 425.66ZM288.247 481.585C302.427 465.179 314.027 451.757 327.63 425.596L329.566 426.602C315.841 452.996 304.105 466.573 289.898 483.011L288.247 481.585ZM280.765 490.294C283.348 487.253 285.836 484.375 288.247 481.585L289.898 483.011C287.486 485.802 285.004 488.674 282.427 491.706L280.765 490.294ZM330.098 353.998C327.464 422.598 304.557 461.06 282.48 491.638L280.712 490.362C302.631 460.001 325.306 421.948 327.918 353.915L330.098 353.998ZM263.234 330.89C281.379 334.629 314.94 347.164 329.412 352.944L328.603 354.969C314.109 349.181 280.72 336.721 262.794 333.027L263.234 330.89ZM260.782 334.398L262.011 331.529L264.016 332.388L262.787 335.257L260.782 334.398ZM315.893 362.596C313.928 361.025 310.48 358.953 306.114 356.61C301.769 354.279 296.577 351.713 291.172 349.152C280.361 344.031 268.728 338.948 261.359 335.832L262.209 333.823C269.597 336.947 281.259 342.043 292.106 347.181C297.528 349.75 302.755 352.333 307.146 354.688C311.516 357.033 315.121 359.185 317.256 360.893L315.893 362.596ZM315.218 365.328C315.307 364.102 315.396 362.88 315.487 361.664L317.662 361.825C317.572 363.04 317.483 364.26 317.393 365.486L315.218 365.328ZM286.002 464.321C310.87 424.871 313.148 393.697 315.218 365.328L317.393 365.486C315.318 393.935 313.014 425.561 287.847 465.485L286.002 464.321ZM306.46 365.329C305.53 396.908 302.861 417.615 299.434 432.59C296.004 447.583 291.82 456.797 287.917 465.355L285.932 464.45C289.818 455.93 293.928 446.876 297.308 432.103C300.693 417.312 303.352 396.757 304.28 365.265L306.46 365.329ZM261.345 336.054C271.13 341.331 295.2 357.16 305.978 364.391L304.763 366.203C293.953 358.951 269.982 343.19 260.31 337.974L261.345 336.054ZM258.806 338.218L259.899 336.442L261.757 337.585L260.664 339.362L258.806 338.218ZM281.638 357.044C275.39 350.688 264.057 342.846 259.147 339.709L260.322 337.871C265.25 341.019 276.762 348.972 283.194 355.515L281.638 357.044ZM281.327 386.963C282.31 368.723 281.73 358.97 281.338 356.446L283.494 356.112C283.922 358.871 284.489 368.812 283.505 387.08L281.327 386.963ZM249.377 418.519C256.569 415.823 263.419 409.973 269.092 403.656C274.752 397.354 279.152 390.687 281.461 386.496L283.371 387.548C280.989 391.873 276.494 398.679 270.715 405.113C264.95 411.532 257.818 417.684 250.143 420.562L249.377 418.519ZM218.525 386.612C225.921 404.833 242.736 415.503 250.172 418.53L249.349 420.551C241.573 417.384 224.193 406.374 216.504 387.432L218.525 386.612ZM217.512 356.595C216.968 370.411 218.012 382.562 218.596 386.875L216.434 387.168C215.834 382.737 214.783 370.458 215.332 356.51L217.512 356.595ZM240.18 339.743C232.649 343.939 221.709 353.216 217.156 357.359L215.688 355.746C220.244 351.6 231.347 342.167 239.119 337.837L240.18 339.743ZM263.608 346.782L263.551 346.735L264.939 345.053L264.996 345.1L263.608 346.782ZM275.995 357.953C273.027 354.561 266.538 349.201 263.608 346.782L264.996 345.1C267.864 347.467 274.523 352.959 277.636 356.517L275.995 357.953ZM274.504 381.689C275.26 375.858 275.679 362.918 275.725 357.226L277.906 357.244C277.86 362.937 277.442 375.995 276.667 381.969L274.504 381.689ZM249.173 408.026C255.09 405.332 260.604 400.352 265.089 395.149C269.567 389.955 272.947 384.624 274.613 381.336L276.558 382.322C274.809 385.775 271.329 391.252 266.741 396.573C262.161 401.886 256.403 407.131 250.077 410.012L249.173 408.026ZM224.965 381.462C227.288 387.956 232.003 393.793 236.973 398.439C241.937 403.08 247.076 406.459 250.13 408.052L249.121 409.986C245.889 408.3 240.589 404.806 235.483 400.033C230.384 395.265 225.398 389.147 222.911 382.196L224.965 381.462ZM224.942 380.866C224.972 381.175 224.999 381.463 225.024 381.726L222.852 381.932C222.827 381.67 222.8 381.383 222.771 381.074L224.942 380.866ZM223.526 357.781C223.526 366.037 224.484 376.077 224.942 380.866L222.771 381.074C222.315 376.302 221.345 366.158 221.345 357.781H223.526ZM235.4 346.757C232.092 349.318 225.929 355.646 223.231 358.527L221.639 357.036C224.315 354.178 230.595 347.718 234.065 345.032L235.4 346.757ZM225.721 357.246C228.164 352.914 232.174 347.427 233.868 345.228L235.596 346.56C233.92 348.734 229.987 354.123 227.621 358.317L225.721 357.246ZM226.413 372.981C225.504 367.221 225.348 360.476 225.584 357.689L227.758 357.874C227.538 360.461 227.682 367.028 228.568 372.641L226.413 372.981ZM249.204 399.368C241.803 396.266 236.328 391.026 232.604 385.922C228.898 380.841 226.858 375.797 226.413 372.981L228.568 372.641C228.943 375.017 230.797 379.742 234.367 384.636C237.919 389.506 243.101 394.445 250.047 397.356L249.204 399.368ZM272.698 372.995C271.446 380.331 267.397 386.254 262.893 390.655C258.392 395.053 253.375 397.995 250.041 399.37L249.209 397.353C252.298 396.08 257.077 393.289 261.368 389.095C265.656 384.905 269.396 379.376 270.548 372.628L272.698 372.995ZM273.533 358.143C273.864 365.661 273.121 371.028 272.69 373.04L270.557 372.583C270.946 370.768 271.678 365.587 271.353 358.239L273.533 358.143ZM267.342 348.561C269.377 351.597 271.909 355.375 273.357 357.596L271.53 358.787C270.091 356.581 267.569 352.817 265.53 349.775L267.342 348.561ZM265.153 345.289C265.718 346.137 266.486 347.283 267.342 348.561L265.53 349.775C264.674 348.499 263.904 347.349 263.338 346.499L265.153 345.289Z" fill="url(#paint2_linear_210_324)"/>
</g>
</g>
<defs>
<filter id="filter0_dddddd_210_324" x="-482.146" y="17.5926" width="1463.81" height="1543.33" filterUnits="userSpaceOnUse" color-interpolation-filters="sRGB">
<feFlood flood-opacity="0" result="BackgroundImageFix"/>
<feColorMatrix in="SourceAlpha" type="matrix" values="0 0 0 0 0 0 0 0 0 0 0 0 0 0 0 0 0 0 127 0" result="hardAlpha"/>
<feOffset dy="12.0724"/>
<feGaussianBlur stdDeviation="8.7525"/>
<feColorMatrix type="matrix" values="0 0 0 0 0.0392157 0 0 0 0 0.0470588 0 0 0 0 0.0627451 0 0 0 0.0506062 0"/>
<feBlend mode="normal" in2="BackgroundImageFix" result="effect1_dropShadow_210_324"/>
<feColorMatrix in="SourceAlpha" type="matrix" values="0 0 0 0 0 0 0 0 0 0 0 0 0 0 0 0 0 0 127 0" result="hardAlpha"/>
<feOffset dy="29.0117"/>
<feGaussianBlur stdDeviation="21.0335"/>
<feColorMatrix type="matrix" values="0 0 0 0 0.0392157 0 0 0 0 0.0470588 0 0 0 0 0.0627451 0 0 0 0.0727007 0"/>
<feBlend mode="normal" in2="effect1_dropShadow_210_324" result="effect2_dropShadow_210_324"/>
<feColorMatrix in="SourceAlpha" type="matrix" values="0 0 0 0 0 0 0 0 0 0 0 0 0 0 0 0 0 0 127 0" result="hardAlpha"/>
<feOffset dy="54.6264"/>
<feGaussianBlur stdDeviation="39.6041"/>
<feColorMatrix type="matrix" values="0 0 0 0 0.0392157 0 0 0 0 0.0470588 0 0 0 0 0.0627451 0 0 0 0.09 0"/>
<feBlend mode="normal" in2="effect2_dropShadow_210_324" result="effect3_dropShadow_210_324"/>
<feColorMatrix in="SourceAlpha" type="matrix" values="0 0 0 0 0 0 0 0 0 0 0 0 0 0 0 0 0 0 127 0" result="hardAlpha"/>
<feOffset dy="97.4442"/>
<feGaussianBlur stdDeviation="70.647"/>
<feColorMatrix type="matrix" values="0 0 0 0 0.0392157 0 0 0 0 0.0470588 0 0 0 0 0.0627451 0 0 0 0.107299 0"/>
<feBlend mode="normal" in2="effect3_dropShadow_210_324" result="effect4_dropShadow_210_324"/>
<feColorMatrix in="SourceAlpha" type="matrix" values="0 0 0 0 0 0 0 0 0 0 0 0 0 0 0 0 0 0 127 0" result="hardAlpha"/>
<feOffset dy="182.259"/>
<feGaussianBlur stdDeviation="132.138"/>
<feColorMatrix type="matrix" values="0 0 0 0 0.0392157 0 0 0 0 0.0470588 0 0 0 0 0.0627451 0 0 0 0.129394 0"/>
<feBlend mode="normal" in2="effect4_dropShadow_210_324" result="effect5_dropShadow_210_324"/>
<feColorMatrix in="SourceAlpha" type="matrix" values="0 0 0 0 0 0 0 0 0 0 0 0 0 0 0 0 0 0 127 0" result="hardAlpha"/>
<feOffset dy="436.259"/>
<feGaussianBlur stdDeviation="316.288"/>
<feColorMatrix type="matrix" values="0 0 0 0 0.0392157 0 0 0 0 0.0470588 0 0 0 0 0.0627451 0 0 0 0.18 0"/>
<feBlend mode="normal" in2="effect5_dropShadow_210_324" result="effect6_dropShadow_210_324"/>
<feBlend mode="normal" in="SourceGraphic" in2="effect6_dropShadow_210_324" result="shape"/>
</filter>
<linearGradient id="paint0_linear_210_324" x1="250" y1="0" x2="250" y2="706" gradientUnits="userSpaceOnUse">
<stop stop-color="#272A31"/>
<stop offset="1" stop-color="#0A0C10"/>
</linearGradient>
<linearGradient id="paint1_linear_210_324" x1="151.521" y1="215" x2="412.315" y2="400.655" gradientUnits="userSpaceOnUse">
<stop stop-color="#EA1D22"/>
<stop offset="1" stop-color="#B31317"/>
</linearGradient>
<linearGradient id="paint2_linear_210_324" x1="151.521" y1="215" x2="412.315" y2="400.655" gradientUnits="userSpaceOnUse">
<stop stop-color="#EA1D22"/>
<stop offset="1" stop-color="#B31317"/>
</linearGradient>
<clipPath id="clip0_210_324">
<rect width="500" height="706" fill="white"/>
</clipPath>
</defs>
</svg>
