<svg width="783" height="476" viewBox="0 0 783 476" fill="none" xmlns="http://www.w3.org/2000/svg">
<g clip-path="url(#clip0_213_457)">
<rect width="783" height="476" fill="url(#paint0_linear_213_457)"/>
<g filter="url(#filter0_dddddd_213_457)">
<path fill-rule="evenodd" clip-rule="evenodd" d="M380.65 223.79L379.693 222.014C369.992 227.661 347.53 241.225 335.287 250.297C335.378 257.949 336.189 278.116 338.703 297.572C339.842 307.273 344.524 331.321 354.143 349.903C348.632 342.57 336.326 322.166 331.188 299.212C329.412 292.699 325.368 273.142 323.4 247.018C333.875 240.96 359.581 227.042 378.6 219.828L377.234 216.958C363.16 220.83 330.286 230.649 311.376 238.956C311.786 248.794 314.218 274.618 320.667 299.212C323.999 311.919 333.183 344.629 359.198 376C358.84 375.63 358.403 375.19 357.892 374.675C352.359 369.099 338.009 354.64 317.798 323.123C307.687 304.404 300.992 282.816 292.521 231.442C312.469 225.02 339.659 217.915 376.414 214.089L375.321 211.903C361.657 211.174 329.74 210.673 311.376 214.499C309.281 200.517 310.037 168.071 326.543 150.145C322.899 160.119 316.104 184.85 321.351 203.978C334.695 203.887 364.09 204.443 374.911 207.394L376.687 205.071C368.671 200.289 350.372 190.315 341.299 188.675C341.269 188.457 341.24 188.237 341.209 188.015C338.604 168.852 334.514 138.766 362.204 100C355.509 113.8 344.688 147.111 351.683 181.98L378.873 201.792L380.923 198.923L372.588 190.315C374.091 187.855 378.573 182.363 384.475 180.067C381.652 183.438 377.835 190.889 385.158 193.731H395.953C399.095 192.911 403.631 189.03 396.636 180.067C399.505 181.388 405.817 185.287 408.113 190.315L401.828 197.83L403.194 200.562L429.428 182.117C432.525 168.772 435.057 133.694 420.41 100.137C421.588 102.307 422.723 104.375 423.812 106.362C438.632 133.392 445.077 145.145 440.495 188.675C435.349 189.768 421.421 194.523 406.883 204.798L407.703 206.574C420.182 205.39 448.174 203.268 460.307 204.251C462.402 194.505 464.324 170.038 455.252 150.145C469.598 170.366 472.467 185.123 470.008 214.909C459.669 212.905 432.734 209.498 407.703 211.903L406.883 214.089C425.283 216.412 467.467 223.134 489 231.442C488.397 234.671 487.812 237.837 487.238 240.941C481.961 269.488 477.659 292.757 469.598 311.099C455.934 337.376 444.266 350.876 430.073 367.298C427.661 370.089 425.176 372.964 422.596 376C444.594 345.531 467.385 307.273 470.008 238.956C455.525 233.172 422.05 220.675 404.014 216.958L402.784 219.828C417.541 226.067 449.376 240.186 457.574 246.745C457.484 247.96 457.395 249.181 457.305 250.407C455.233 278.816 452.942 310.216 427.925 349.903C435.713 332.824 444.512 313.367 446.37 250.297C435.576 243.055 411.556 227.261 401.828 222.014L400.735 223.79C405.653 226.933 417.076 234.83 423.416 241.279C423.826 243.921 424.4 253.768 423.416 272.022C418.725 280.539 405.626 298.966 390.76 304.541C383.154 301.444 366.057 290.604 358.515 272.022C357.923 267.65 356.875 255.434 357.422 241.552C361.976 237.408 372.998 228.053 380.65 223.79ZM405.245 230.894L405.302 230.941C408.201 233.334 414.775 238.76 417.815 242.235C417.77 247.928 417.351 260.926 416.586 266.829C413.17 273.57 402.868 288.444 390.625 294.019C384.34 290.74 369.748 280.274 364.938 266.829C364.913 266.566 364.886 266.279 364.856 265.97C364.4 261.19 363.435 251.098 363.435 242.781C366.122 239.912 372.344 233.518 375.732 230.894C374.047 233.08 370.076 238.518 367.671 242.781C367.443 245.469 367.593 252.125 368.491 257.811C369.31 263.003 376.279 277.35 390.625 283.362C397.047 280.713 410.219 271.896 412.623 257.811C413.033 255.898 413.771 250.624 413.443 243.191C412 240.978 409.473 237.207 407.436 234.168C406.58 232.891 405.811 231.743 405.245 230.894Z" fill="url(#paint1_linear_213_457)"/>
<path d="M379.693 222.014L379.144 221.071C379.4 220.923 379.705 220.884 379.989 220.964C380.274 221.044 380.513 221.237 380.653 221.497L379.693 222.014ZM380.65 223.79L381.61 223.273C381.893 223.798 381.701 224.453 381.18 224.743L380.65 223.79ZM335.287 250.297L334.197 250.31C334.192 249.96 334.357 249.629 334.638 249.421L335.287 250.297ZM338.703 297.572L339.785 297.433L339.786 297.445L338.703 297.572ZM354.143 349.903L355.111 349.402C355.372 349.905 355.203 350.525 354.723 350.826C354.243 351.128 353.611 351.012 353.271 350.558L354.143 349.903ZM331.188 299.212L332.24 298.925C332.245 298.941 332.249 298.957 332.253 298.974L331.188 299.212ZM323.4 247.018L322.313 247.1C322.281 246.682 322.492 246.283 322.854 246.074L323.4 247.018ZM378.6 219.828L379.585 219.359C379.716 219.634 379.726 219.951 379.612 220.234C379.499 220.517 379.272 220.739 378.987 220.847L378.6 219.828ZM377.234 216.958L376.944 215.907C377.454 215.767 377.991 216.012 378.218 216.49L377.234 216.958ZM311.376 238.956L310.287 239.002C310.268 238.553 310.526 238.139 310.938 237.958L311.376 238.956ZM320.667 299.212L319.612 299.489L319.612 299.489L320.667 299.212ZM359.198 376L360.038 375.304C360.412 375.755 360.362 376.421 359.926 376.812C359.49 377.203 358.822 377.18 358.415 376.759L359.198 376ZM357.892 374.675L357.117 375.443L357.117 375.443L357.892 374.675ZM317.798 323.123L316.88 323.712C316.865 323.689 316.851 323.665 316.838 323.641L317.798 323.123ZM292.521 231.442L291.445 231.619C291.357 231.086 291.672 230.569 292.187 230.403L292.521 231.442ZM376.414 214.089L377.389 213.601C377.549 213.922 377.542 214.3 377.37 214.614C377.198 214.927 376.883 215.137 376.527 215.174L376.414 214.089ZM375.321 211.903L375.379 210.814C375.771 210.835 376.121 211.064 376.296 211.415L375.321 211.903ZM311.376 214.499L311.599 215.567C311.305 215.628 310.999 215.565 310.753 215.394C310.507 215.223 310.342 214.957 310.298 214.661L311.376 214.499ZM326.543 150.145L325.74 149.406C326.093 149.023 326.666 148.943 327.11 149.213C327.554 149.484 327.745 150.03 327.567 150.519L326.543 150.145ZM321.351 203.978L321.358 205.069C320.864 205.072 320.429 204.743 320.299 204.267L321.351 203.978ZM374.911 207.394L375.777 208.057C375.508 208.409 375.052 208.563 374.624 208.446L374.911 207.394ZM376.687 205.071L377.246 204.135C377.513 204.294 377.699 204.56 377.758 204.865C377.817 205.171 377.742 205.487 377.554 205.734L376.687 205.071ZM341.299 188.675L341.105 189.749C340.64 189.664 340.282 189.29 340.218 188.822L341.299 188.675ZM341.209 188.015L340.129 188.162L340.129 188.162L341.209 188.015ZM362.204 100L361.316 99.3661C361.646 98.9049 362.274 98.7729 362.761 99.0623C363.248 99.3517 363.433 99.9661 363.185 100.476L362.204 100ZM351.683 181.98L351.041 182.862C350.82 182.701 350.668 182.463 350.614 182.195L351.683 181.98ZM378.873 201.792L379.761 202.426C379.592 202.663 379.335 202.822 379.048 202.869C378.76 202.915 378.466 202.845 378.231 202.674L378.873 201.792ZM380.923 198.923L381.706 198.164C382.073 198.542 382.116 199.128 381.81 199.557L380.923 198.923ZM372.588 190.315L371.805 191.074C371.459 190.716 371.398 190.17 371.658 189.746L372.588 190.315ZM384.475 180.067L384.08 179.051C384.544 178.87 385.071 179.027 385.362 179.432C385.652 179.836 385.631 180.386 385.311 180.768L384.475 180.067ZM385.158 193.731V194.821C385.024 194.821 384.89 194.796 384.764 194.747L385.158 193.731ZM395.953 193.731L396.228 194.786C396.138 194.809 396.045 194.821 395.953 194.821V193.731ZM396.636 180.067L395.776 180.738C395.466 180.342 395.468 179.785 395.781 179.39C396.093 178.996 396.635 178.866 397.092 179.077L396.636 180.067ZM408.113 190.315L409.105 189.862C409.279 190.244 409.219 190.692 408.95 191.015L408.113 190.315ZM401.828 197.83L400.852 198.317C400.658 197.929 400.713 197.463 400.991 197.13L401.828 197.83ZM403.194 200.562L403.821 201.455C403.562 201.637 403.235 201.698 402.927 201.62C402.619 201.542 402.361 201.334 402.219 201.05L403.194 200.562ZM429.428 182.117L430.49 182.363C430.429 182.625 430.275 182.855 430.055 183.009L429.428 182.117ZM420.41 100.137L419.41 100.573C419.177 100.038 419.406 99.4132 419.931 99.1567C420.456 98.9003 421.09 99.1028 421.368 99.6161L420.41 100.137ZM423.812 106.362L424.768 105.837L424.768 105.837L423.812 106.362ZM440.495 188.675L441.58 188.789C441.53 189.259 441.184 189.644 440.722 189.742L440.495 188.675ZM406.883 204.798L405.893 205.255C405.673 204.778 405.824 204.211 406.254 203.907L406.883 204.798ZM407.703 206.574L407.806 207.66C407.345 207.704 406.907 207.452 406.713 207.031L407.703 206.574ZM460.307 204.251L461.373 204.481C461.258 205.016 460.764 205.383 460.219 205.339L460.307 204.251ZM455.252 150.145L454.259 150.597C454.026 150.085 454.22 149.48 454.707 149.199C455.195 148.919 455.816 149.055 456.141 149.513L455.252 150.145ZM470.008 214.909L471.095 214.999C471.069 215.308 470.914 215.591 470.667 215.778C470.42 215.965 470.105 216.039 469.8 215.98L470.008 214.909ZM407.703 211.903L406.682 211.52C406.828 211.13 407.184 210.857 407.599 210.817L407.703 211.903ZM406.883 214.089L406.747 215.171C406.416 215.129 406.122 214.938 405.95 214.653C405.777 214.367 405.745 214.019 405.862 213.706L406.883 214.089ZM489 231.442L489.393 230.424C489.883 230.613 490.169 231.125 490.072 231.642L489 231.442ZM487.238 240.941L486.165 240.742L486.165 240.742L487.238 240.941ZM469.598 311.099L470.596 311.538C470.587 311.56 470.577 311.581 470.566 311.602L469.598 311.099ZM430.073 367.298L429.248 366.585L429.248 366.585L430.073 367.298ZM422.596 376L423.427 376.706C423.048 377.152 422.384 377.22 421.923 376.858C421.462 376.497 421.369 375.836 421.712 375.362L422.596 376ZM470.008 238.956L470.412 237.944C470.841 238.115 471.115 238.537 471.098 238.998L470.008 238.956ZM404.014 216.958L403.011 216.529C403.216 216.053 403.727 215.786 404.234 215.89L404.014 216.958ZM402.784 219.828L402.359 220.832C402.092 220.719 401.881 220.504 401.773 220.235C401.664 219.966 401.667 219.665 401.782 219.398L402.784 219.828ZM457.574 246.745L458.256 245.893C458.537 246.118 458.689 246.467 458.662 246.825L457.574 246.745ZM457.305 250.407L458.393 250.486L458.393 250.486L457.305 250.407ZM427.925 349.903L428.847 350.485C428.541 350.97 427.911 351.135 427.407 350.863C426.902 350.59 426.694 349.973 426.932 349.45L427.925 349.903ZM446.37 250.297L446.978 249.391C447.289 249.6 447.472 249.954 447.46 250.329L446.37 250.297ZM401.828 222.014L400.899 221.442C401.202 220.95 401.837 220.779 402.345 221.054L401.828 222.014ZM400.735 223.79L400.147 224.709C399.646 224.389 399.494 223.725 399.806 223.218L400.735 223.79ZM423.416 241.279L424.194 240.515C424.354 240.677 424.459 240.886 424.494 241.112L423.416 241.279ZM423.416 272.022L424.505 272.08C424.496 272.244 424.45 272.404 424.371 272.548L423.416 272.022ZM390.76 304.541L391.143 305.562C390.887 305.658 390.603 305.654 390.349 305.551L390.76 304.541ZM358.515 272.022L357.504 272.432C357.47 272.347 357.446 272.259 357.434 272.168L358.515 272.022ZM357.422 241.552L356.332 241.51C356.343 241.218 356.472 240.942 356.688 240.746L357.422 241.552ZM405.302 230.941L405.996 230.1L405.996 230.1L405.302 230.941ZM405.245 230.894L404.338 231.499C404.038 231.049 404.113 230.447 404.514 230.085C404.916 229.722 405.522 229.709 405.939 230.053L405.245 230.894ZM417.815 242.235L418.636 241.517C418.812 241.718 418.908 241.976 418.906 242.244L417.815 242.235ZM416.586 266.829L417.667 266.969C417.651 267.092 417.615 267.211 417.558 267.322L416.586 266.829ZM390.625 294.019L391.077 295.012C390.771 295.151 390.419 295.141 390.121 294.986L390.625 294.019ZM364.938 266.829L363.911 267.196C363.881 267.111 363.861 267.022 363.852 266.932L364.938 266.829ZM364.856 265.97L365.942 265.867L365.942 265.867L364.856 265.97ZM363.435 242.781H362.345C362.345 242.505 362.45 242.238 362.639 242.036L363.435 242.781ZM375.732 230.894L375.065 230.032C375.498 229.696 376.114 229.735 376.503 230.122C376.891 230.51 376.931 231.126 376.596 231.56L375.732 230.894ZM367.671 242.781L366.584 242.689C366.597 242.533 366.644 242.382 366.721 242.246L367.671 242.781ZM368.491 257.811L369.568 257.641L369.568 257.641L368.491 257.811ZM390.625 283.362L391.041 284.37C390.773 284.481 390.471 284.48 390.204 284.368L390.625 283.362ZM412.623 257.811L411.548 257.628C411.551 257.613 411.554 257.598 411.557 257.583L412.623 257.811ZM413.443 243.191L414.357 242.596C414.463 242.759 414.524 242.948 414.533 243.143L413.443 243.191ZM407.436 234.168L406.53 234.775L406.53 234.775L407.436 234.168ZM380.653 221.497L381.61 223.273L379.689 224.307L378.733 222.531L380.653 221.497ZM334.638 249.421C346.934 240.308 369.444 226.718 379.144 221.071L380.242 222.956C370.54 228.604 348.125 242.141 335.937 251.173L334.638 249.421ZM337.621 297.712C335.101 278.203 334.288 257.992 334.197 250.31L336.378 250.284C336.468 257.905 337.277 278.028 339.785 297.433L337.621 297.712ZM353.174 350.404C343.471 331.659 338.766 307.467 337.62 297.699L339.786 297.445C340.917 307.08 345.577 330.983 355.111 349.402L353.174 350.404ZM332.253 298.974C337.348 321.739 349.57 342.003 355.015 349.248L353.271 350.558C347.694 343.137 335.304 322.594 330.124 299.45L332.253 298.974ZM324.488 246.936C326.451 273.002 330.485 292.489 332.24 298.925L330.136 299.499C328.339 292.909 324.284 273.282 322.313 247.1L324.488 246.936ZM378.987 220.847C360.053 228.029 334.41 241.911 323.946 247.962L322.854 246.074C333.341 240.01 359.108 226.055 378.213 218.808L378.987 220.847ZM378.218 216.49L379.585 219.359L377.615 220.297L376.249 217.427L378.218 216.49ZM310.938 237.958C329.928 229.616 362.87 219.778 376.944 215.907L377.523 218.01C363.451 221.881 330.645 231.683 311.815 239.955L310.938 237.958ZM319.612 299.489C313.139 274.801 310.699 248.896 310.287 239.002L312.466 238.911C312.874 248.692 315.298 274.435 321.722 298.935L319.612 299.489ZM358.359 376.696C332.19 345.14 322.957 312.245 319.612 299.489L321.722 298.935C325.041 311.593 334.176 344.117 360.038 375.304L358.359 376.696ZM358.666 373.906C359.176 374.42 359.617 374.865 359.981 375.241L358.415 376.759C358.062 376.395 357.631 375.96 357.117 375.443L358.666 373.906ZM318.716 322.534C338.875 353.971 353.172 368.37 358.666 373.906L357.117 375.443C351.545 369.828 337.143 355.309 316.88 323.712L318.716 322.534ZM293.597 231.264C302.064 282.611 308.736 304.051 318.758 322.604L316.838 323.641C306.638 304.757 299.921 283.021 291.445 231.619L293.597 231.264ZM376.527 215.174C339.86 218.99 312.745 226.077 292.855 232.48L292.187 230.403C312.194 223.963 339.459 216.839 376.301 213.004L376.527 215.174ZM376.296 211.415L377.389 213.601L375.438 214.577L374.345 212.391L376.296 211.415ZM311.154 213.431C329.671 209.574 361.717 210.085 375.379 210.814L375.263 212.992C361.598 212.263 329.809 211.773 311.599 215.567L311.154 213.431ZM327.345 150.883C319.297 159.624 315.034 171.978 313.06 183.978C311.089 195.965 311.424 207.458 312.455 214.337L310.298 214.661C309.233 207.558 308.899 195.837 310.908 183.624C312.915 171.424 317.283 158.591 325.74 149.406L327.345 150.883ZM320.299 204.267C317.618 194.492 318.025 183.354 319.535 173.464C321.046 163.56 323.676 154.813 325.518 149.77L327.567 150.519C325.766 155.45 323.177 164.056 321.691 173.793C320.203 183.544 319.837 194.336 322.402 203.69L320.299 204.267ZM374.624 208.446C369.347 207.007 359.412 206.132 349.025 205.635C338.679 205.139 328.015 205.023 321.358 205.069L321.343 202.888C328.031 202.842 338.736 202.958 349.129 203.456C359.48 203.951 369.653 204.83 375.198 206.342L374.624 208.446ZM377.554 205.734L375.777 208.057L374.045 206.732L375.821 204.409L377.554 205.734ZM341.493 187.602C346.198 188.452 353.166 191.423 359.87 194.716C366.612 198.027 373.217 201.731 377.246 204.135L376.128 206.008C372.141 203.629 365.589 199.955 358.909 196.674C352.19 193.374 345.473 190.538 341.105 189.749L341.493 187.602ZM342.29 187.868C342.32 188.09 342.35 188.31 342.38 188.529L340.218 188.822C340.189 188.604 340.159 188.384 340.129 188.162L342.29 187.868ZM363.091 100.634C349.345 119.879 343.513 136.929 341.426 151.513C339.336 166.112 340.988 178.291 342.29 187.869L340.129 188.162C338.826 178.577 337.13 166.131 339.266 151.204C341.405 136.264 347.373 118.887 361.316 99.3661L363.091 100.634ZM350.614 182.195C343.556 147.015 354.464 113.454 361.223 99.5239L363.185 100.476C356.553 114.146 345.819 147.208 352.753 181.766L350.614 182.195ZM378.231 202.674L351.041 182.862L352.326 181.099L379.516 200.911L378.231 202.674ZM381.81 199.557L379.761 202.426L377.986 201.158L380.035 198.289L381.81 199.557ZM373.372 189.556L381.706 198.164L380.139 199.681L371.805 191.074L373.372 189.556ZM384.871 181.084C379.28 183.258 374.958 188.528 373.519 190.884L371.658 189.746C373.224 187.183 377.866 181.467 384.08 179.051L384.871 181.084ZM384.764 194.747C382.748 193.965 381.384 192.817 380.608 191.393C379.836 189.979 379.713 188.42 379.933 186.937C380.366 184.016 382.165 181.126 383.639 179.367L385.311 180.768C383.962 182.378 382.44 184.9 382.09 187.257C381.919 188.413 382.038 189.461 382.522 190.348C383.001 191.226 383.907 192.075 385.553 192.714L384.764 194.747ZM395.953 194.821H385.158V192.64H395.953V194.821ZM397.495 179.396C401.082 183.992 401.942 187.573 401.141 190.264C400.343 192.946 398.024 194.318 396.228 194.786L395.677 192.675C397.024 192.324 398.544 191.346 399.051 189.642C399.555 187.947 399.185 185.106 395.776 180.738L397.495 179.396ZM407.121 190.768C406.075 188.478 404.074 186.375 401.911 184.654C399.759 182.944 397.539 181.684 396.18 181.058L397.092 179.077C398.601 179.772 400.972 181.121 403.268 182.947C405.552 184.764 407.855 187.123 409.105 189.862L407.121 190.768ZM400.991 197.13L407.276 189.615L408.95 191.015L402.664 198.529L400.991 197.13ZM402.219 201.05L400.852 198.317L402.803 197.342L404.17 200.075L402.219 201.05ZM430.055 183.009L403.821 201.455L402.567 199.67L428.8 181.225L430.055 183.009ZM421.41 99.7003C436.172 133.521 433.627 168.848 430.49 182.363L428.365 181.87C431.423 168.697 433.943 133.867 419.41 100.573L421.41 99.7003ZM422.856 106.886C421.767 104.9 420.631 102.829 419.452 100.657L421.368 99.6161C422.546 101.784 423.679 103.851 424.768 105.837L422.856 106.886ZM439.41 188.561C441.696 166.85 441.218 153.173 438.37 141.591C435.519 129.996 430.279 120.426 422.856 106.886L424.768 105.837C432.165 119.327 437.558 129.149 440.489 141.071C443.423 153.006 443.876 166.97 441.58 188.789L439.41 188.561ZM406.254 203.907C420.911 193.548 434.975 188.733 440.268 187.608L440.722 189.742C435.722 190.804 421.931 195.498 407.513 205.689L406.254 203.907ZM406.713 207.031L405.893 205.255L407.873 204.341L408.693 206.117L406.713 207.031ZM460.219 205.339C448.2 204.364 420.311 206.473 407.806 207.66L407.6 205.488C420.053 204.307 448.147 202.171 460.395 203.164L460.219 205.339ZM456.244 149.692C465.452 169.884 463.493 194.617 461.373 204.481L459.241 204.022C461.311 194.392 463.195 170.192 454.259 150.597L456.244 149.692ZM468.921 214.819C470.148 199.963 470.035 188.957 467.867 179.176C465.704 169.417 461.478 160.806 454.362 150.776L456.141 149.513C463.372 159.705 467.753 168.583 469.997 178.704C472.235 188.804 472.328 200.068 471.095 214.999L468.921 214.819ZM407.599 210.817C432.766 208.399 459.811 211.822 470.215 213.838L469.8 215.98C459.527 213.988 432.702 210.597 407.807 212.989L407.599 210.817ZM405.862 213.706L406.682 211.52L408.724 212.286L407.904 214.472L405.862 213.706ZM488.607 232.459C467.215 224.206 425.158 217.495 406.747 215.171L407.02 213.007C425.408 215.328 467.718 222.062 489.393 230.424L488.607 232.459ZM486.165 240.742C486.739 237.639 487.325 234.472 487.928 231.241L490.072 231.642C489.469 234.87 488.884 238.035 488.31 241.139L486.165 240.742ZM468.6 310.66C476.598 292.46 480.88 269.333 486.165 240.742L488.31 241.139C483.041 269.643 478.72 293.055 470.596 311.538L468.6 310.66ZM429.248 366.585C443.427 350.179 455.027 336.757 468.63 310.596L470.566 311.602C456.841 337.996 445.105 351.573 430.898 368.011L429.248 366.585ZM421.765 375.294C424.348 372.253 426.836 369.375 429.248 366.585L430.898 368.011C428.486 370.802 426.004 373.674 423.427 376.706L421.765 375.294ZM471.098 238.998C468.464 307.598 445.557 346.06 423.48 376.638L421.712 375.362C443.631 345.001 466.306 306.948 468.918 238.915L471.098 238.998ZM404.234 215.89C422.379 219.629 455.94 232.164 470.412 237.944L469.603 239.969C455.109 234.181 421.72 221.721 403.794 218.027L404.234 215.89ZM401.782 219.398L403.011 216.529L405.016 217.388L403.787 220.257L401.782 219.398ZM456.893 247.596C454.928 246.025 451.48 243.953 447.114 241.61C442.769 239.279 437.577 236.713 432.172 234.152C421.361 229.031 409.728 223.948 402.359 220.832L403.209 218.823C410.597 221.947 422.259 227.043 433.106 232.181C438.528 234.75 443.755 237.333 448.146 239.688C452.516 242.033 456.121 244.185 458.256 245.893L456.893 247.596ZM456.218 250.328C456.307 249.102 456.396 247.88 456.487 246.664L458.662 246.825C458.572 248.04 458.483 249.26 458.393 250.486L456.218 250.328ZM427.002 349.321C451.87 309.871 454.148 278.697 456.218 250.328L458.393 250.486C456.318 278.935 454.014 310.561 428.847 350.485L427.002 349.321ZM447.46 250.329C446.53 281.908 443.861 302.615 440.434 317.59C437.004 332.583 432.82 341.797 428.917 350.355L426.932 349.45C430.818 340.93 434.928 331.876 438.308 317.103C441.693 302.312 444.352 281.757 445.28 250.265L447.46 250.329ZM402.345 221.054C412.13 226.331 436.2 242.16 446.978 249.391L445.763 251.203C434.953 243.951 410.982 228.19 401.31 222.974L402.345 221.054ZM399.806 223.218L400.899 221.442L402.757 222.585L401.664 224.362L399.806 223.218ZM422.638 242.044C416.39 235.688 405.057 227.846 400.147 224.709L401.322 222.871C406.25 226.019 417.762 233.972 424.194 240.515L422.638 242.044ZM422.327 271.963C423.31 253.723 422.73 243.97 422.338 241.446L424.494 241.112C424.922 243.871 425.489 253.812 424.505 272.08L422.327 271.963ZM390.377 303.519C397.569 300.823 404.419 294.973 410.092 288.656C415.752 282.354 420.152 275.687 422.461 271.496L424.371 272.548C421.989 276.873 417.494 283.679 411.715 290.113C405.95 296.532 398.818 302.684 391.143 305.562L390.377 303.519ZM359.525 271.612C366.921 289.833 383.736 300.503 391.172 303.53L390.349 305.551C382.573 302.384 365.193 291.374 357.504 272.432L359.525 271.612ZM358.512 241.595C357.968 255.411 359.012 267.562 359.596 271.875L357.434 272.168C356.834 267.737 355.783 255.458 356.332 241.51L358.512 241.595ZM381.18 224.743C373.649 228.939 362.709 238.216 358.156 242.359L356.688 240.746C361.244 236.6 372.347 227.167 380.119 222.837L381.18 224.743ZM404.608 231.782L404.551 231.735L405.939 230.053L405.996 230.1L404.608 231.782ZM416.995 242.953C414.027 239.561 407.538 234.201 404.608 231.782L405.996 230.1C408.864 232.467 415.523 237.959 418.636 241.517L416.995 242.953ZM415.504 266.689C416.26 260.858 416.679 247.918 416.725 242.226L418.906 242.244C418.86 247.937 418.442 260.995 417.667 266.969L415.504 266.689ZM390.173 293.026C396.09 290.332 401.604 285.352 406.089 280.149C410.567 274.955 413.947 269.624 415.613 266.336L417.558 267.322C415.809 270.775 412.329 276.252 407.741 281.573C403.161 286.886 397.403 292.131 391.077 295.012L390.173 293.026ZM365.965 266.462C368.288 272.956 373.003 278.793 377.973 283.439C382.937 288.08 388.076 291.459 391.13 293.052L390.121 294.986C386.889 293.3 381.589 289.806 376.483 285.033C371.384 280.265 366.398 274.147 363.911 267.196L365.965 266.462ZM365.942 265.867C365.972 266.176 365.999 266.463 366.024 266.726L363.852 266.932C363.828 266.67 363.8 266.383 363.771 266.074L365.942 265.867ZM364.526 242.781C364.526 251.037 365.484 261.077 365.942 265.867L363.771 266.074C363.315 261.303 362.345 251.158 362.345 242.781H364.526ZM376.4 231.757C373.092 234.318 366.929 240.646 364.231 243.527L362.639 242.036C365.315 239.178 371.595 232.718 375.065 230.032L376.4 231.757ZM366.721 242.246C369.164 237.914 373.174 232.427 374.868 230.228L376.596 231.56C374.92 233.734 370.987 239.123 368.621 243.317L366.721 242.246ZM367.413 257.981C366.504 252.221 366.348 245.476 366.584 242.689L368.758 242.874C368.538 245.461 368.682 252.028 369.568 257.641L367.413 257.981ZM390.204 284.368C382.803 281.266 377.328 276.026 373.604 270.922C369.898 265.841 367.858 260.797 367.413 257.981L369.568 257.641C369.943 260.017 371.797 264.742 375.367 269.636C378.919 274.506 384.101 279.445 391.047 282.356L390.204 284.368ZM413.698 257.995C412.446 265.331 408.397 271.254 403.893 275.655C399.392 280.053 394.375 282.995 391.041 284.37L390.209 282.353C393.298 281.08 398.077 278.289 402.368 274.095C406.656 269.905 410.396 264.376 411.548 257.628L413.698 257.995ZM414.533 243.143C414.864 250.661 414.121 256.028 413.69 258.04L411.557 257.583C411.946 255.768 412.678 250.587 412.353 243.239L414.533 243.143ZM408.342 233.561C410.377 236.597 412.909 240.375 414.357 242.596L412.53 243.787C411.091 241.581 408.569 237.817 406.53 234.775L408.342 233.561ZM406.153 230.289C406.718 231.137 407.486 232.283 408.342 233.561L406.53 234.775C405.674 233.499 404.904 232.349 404.338 231.499L406.153 230.289Z" fill="url(#paint2_linear_213_457)"/>
</g>
</g>
<defs>
<filter id="filter0_dddddd_213_457" x="-341.146" y="-97.4074" width="1463.81" height="1543.33" filterUnits="userSpaceOnUse" color-interpolation-filters="sRGB">
<feFlood flood-opacity="0" result="BackgroundImageFix"/>
<feColorMatrix in="SourceAlpha" type="matrix" values="0 0 0 0 0 0 0 0 0 0 0 0 0 0 0 0 0 0 127 0" result="hardAlpha"/>
<feOffset dy="12.0724"/>
<feGaussianBlur stdDeviation="8.7525"/>
<feColorMatrix type="matrix" values="0 0 0 0 0.0392157 0 0 0 0 0.0470588 0 0 0 0 0.0627451 0 0 0 0.0506062 0"/>
<feBlend mode="normal" in2="BackgroundImageFix" result="effect1_dropShadow_213_457"/>
<feColorMatrix in="SourceAlpha" type="matrix" values="0 0 0 0 0 0 0 0 0 0 0 0 0 0 0 0 0 0 127 0" result="hardAlpha"/>
<feOffset dy="29.0117"/>
<feGaussianBlur stdDeviation="21.0335"/>
<feColorMatrix type="matrix" values="0 0 0 0 0.0392157 0 0 0 0 0.0470588 0 0 0 0 0.0627451 0 0 0 0.0727007 0"/>
<feBlend mode="normal" in2="effect1_dropShadow_213_457" result="effect2_dropShadow_213_457"/>
<feColorMatrix in="SourceAlpha" type="matrix" values="0 0 0 0 0 0 0 0 0 0 0 0 0 0 0 0 0 0 127 0" result="hardAlpha"/>
<feOffset dy="54.6264"/>
<feGaussianBlur stdDeviation="39.6041"/>
<feColorMatrix type="matrix" values="0 0 0 0 0.0392157 0 0 0 0 0.0470588 0 0 0 0 0.0627451 0 0 0 0.09 0"/>
<feBlend mode="normal" in2="effect2_dropShadow_213_457" result="effect3_dropShadow_213_457"/>
<feColorMatrix in="SourceAlpha" type="matrix" values="0 0 0 0 0 0 0 0 0 0 0 0 0 0 0 0 0 0 127 0" result="hardAlpha"/>
<feOffset dy="97.4442"/>
<feGaussianBlur stdDeviation="70.647"/>
<feColorMatrix type="matrix" values="0 0 0 0 0.0392157 0 0 0 0 0.0470588 0 0 0 0 0.0627451 0 0 0 0.107299 0"/>
<feBlend mode="normal" in2="effect3_dropShadow_213_457" result="effect4_dropShadow_213_457"/>
<feColorMatrix in="SourceAlpha" type="matrix" values="0 0 0 0 0 0 0 0 0 0 0 0 0 0 0 0 0 0 127 0" result="hardAlpha"/>
<feOffset dy="182.259"/>
<feGaussianBlur stdDeviation="132.138"/>
<feColorMatrix type="matrix" values="0 0 0 0 0.0392157 0 0 0 0 0.0470588 0 0 0 0 0.0627451 0 0 0 0.129394 0"/>
<feBlend mode="normal" in2="effect4_dropShadow_213_457" result="effect5_dropShadow_213_457"/>
<feColorMatrix in="SourceAlpha" type="matrix" values="0 0 0 0 0 0 0 0 0 0 0 0 0 0 0 0 0 0 127 0" result="hardAlpha"/>
<feOffset dy="436.259"/>
<feGaussianBlur stdDeviation="316.288"/>
<feColorMatrix type="matrix" values="0 0 0 0 0.0392157 0 0 0 0 0.0470588 0 0 0 0 0.0627451 0 0 0 0.18 0"/>
<feBlend mode="normal" in2="effect5_dropShadow_213_457" result="effect6_dropShadow_213_457"/>
<feBlend mode="normal" in="SourceGraphic" in2="effect6_dropShadow_213_457" result="shape"/>
</filter>
<linearGradient id="paint0_linear_213_457" x1="391.5" y1="0" x2="391.5" y2="476" gradientUnits="userSpaceOnUse">
<stop stop-color="#272A31"/>
<stop offset="1" stop-color="#0A0C10"/>
</linearGradient>
<linearGradient id="paint1_linear_213_457" x1="292.521" y1="100" x2="553.315" y2="285.655" gradientUnits="userSpaceOnUse">
<stop stop-color="#EA1D22"/>
<stop offset="1" stop-color="#B31317"/>
</linearGradient>
<linearGradient id="paint2_linear_213_457" x1="292.521" y1="100" x2="553.315" y2="285.655" gradientUnits="userSpaceOnUse">
<stop stop-color="#EA1D22"/>
<stop offset="1" stop-color="#B31317"/>
</linearGradient>
<clipPath id="clip0_213_457">
<rect width="783" height="476" fill="white"/>
</clipPath>
</defs>
</svg>
