<svg width="500" height="896" viewBox="0 0 500 896" fill="none" xmlns="http://www.w3.org/2000/svg">
<g clip-path="url(#clip0_210_324)">
<rect width="500" height="896" fill="url(#paint0_linear_210_324)"/>
<g filter="url(#filter0_dddddd_210_324)">
<path fill-rule="evenodd" clip-rule="evenodd" d="M239.65 433.79L238.693 432.014C228.992 437.661 206.53 451.225 194.287 460.297C194.378 467.949 195.189 488.116 197.703 507.572C198.842 517.273 203.524 541.321 213.143 559.903C207.632 552.57 195.326 532.166 190.188 509.212C188.412 502.699 184.368 483.142 182.4 457.018C192.875 450.96 218.581 437.042 237.6 429.828L236.234 426.958C222.16 430.83 189.286 440.649 170.376 448.956C170.786 458.794 173.218 484.618 179.667 509.212C182.999 521.919 192.183 554.629 218.198 586C217.84 585.63 217.403 585.19 216.892 584.675C211.359 579.099 197.009 564.64 176.798 533.123C166.687 514.404 159.992 492.816 151.521 441.442C171.469 435.02 198.659 427.915 235.414 424.089L234.321 421.903C220.657 421.174 188.74 420.673 170.376 424.499C168.281 410.517 169.037 378.071 185.543 360.145C181.899 370.119 175.104 394.85 180.351 413.978C193.695 413.887 223.09 414.443 233.911 417.394L235.687 415.071C227.671 410.289 209.372 400.315 200.299 398.675C200.269 398.457 200.24 398.237 200.209 398.015C197.604 378.852 193.514 348.766 221.204 310C214.509 323.8 203.688 357.111 210.683 391.98L237.873 411.792L239.923 408.923L231.588 400.315C233.091 397.855 237.573 392.363 243.475 390.067C240.652 393.438 236.835 400.889 244.158 403.731H254.953C258.095 402.911 262.631 399.03 255.636 390.067C258.505 391.388 264.817 395.287 267.113 400.315L260.828 407.83L262.194 410.562L288.428 392.117C291.525 378.772 294.057 343.694 279.41 310.137C280.588 312.307 281.723 314.375 282.812 316.362C297.632 343.392 304.077 355.145 299.495 398.675C294.349 399.768 280.421 404.523 265.883 414.798L266.703 416.574C279.182 415.39 307.174 413.268 319.307 414.251C321.402 404.505 323.324 380.038 314.252 360.145C328.598 380.366 331.467 395.123 329.008 424.909C318.669 422.905 291.734 419.498 266.703 421.903L265.883 424.089C284.283 426.412 326.467 433.134 348 441.442C347.397 444.671 346.812 447.837 346.238 450.941C340.961 479.488 336.659 502.757 328.598 521.099C314.934 547.376 303.266 560.876 289.073 577.298C286.661 580.089 284.176 582.964 281.596 586C303.594 555.531 326.385 517.273 329.008 448.956C314.525 443.172 281.05 430.675 263.014 426.958L261.784 429.828C276.541 436.067 308.376 450.186 316.574 456.745C316.484 457.96 316.395 459.181 316.305 460.407C314.233 488.816 311.942 520.216 286.925 559.903C294.713 542.824 303.512 523.367 305.37 460.297C294.576 453.055 270.556 437.261 260.828 432.014L259.735 433.79C264.653 436.933 276.076 444.83 282.416 451.279C282.826 453.921 283.4 463.768 282.416 482.022C277.725 490.539 264.626 508.966 249.76 514.541C242.154 511.444 225.057 500.604 217.515 482.022C216.923 477.65 215.875 465.434 216.422 451.552C220.976 447.408 231.998 438.053 239.65 433.79ZM264.245 440.894L264.302 440.941L264.302 440.941C267.201 443.334 273.775 448.76 276.815 452.235C276.77 457.928 276.351 470.926 275.586 476.829C272.17 483.57 261.868 498.444 249.625 504.019C243.34 500.74 228.748 490.274 223.938 476.829C223.913 476.566 223.886 476.279 223.856 475.97C223.4 471.19 222.435 461.098 222.435 452.781C225.122 449.912 231.344 443.518 234.732 440.894C233.047 443.08 229.076 448.518 226.671 452.781C226.443 455.469 226.593 462.125 227.491 467.811C228.31 473.003 235.279 487.35 249.625 493.362C256.047 490.713 269.219 481.896 271.623 467.811C272.033 465.898 272.771 460.624 272.443 453.191C271 450.978 268.473 447.207 266.436 444.168C265.58 442.891 264.811 441.743 264.245 440.894Z" fill="url(#paint1_linear_210_324)"/>
<path d="M238.693 432.014L238.144 431.071C238.4 430.923 238.705 430.884 238.989 430.964C239.274 431.044 239.513 431.237 239.653 431.497L238.693 432.014ZM239.65 433.79L240.61 433.273C240.893 433.798 240.701 434.453 240.18 434.743L239.65 433.79ZM194.287 460.297L193.197 460.31C193.192 459.96 193.357 459.629 193.638 459.421L194.287 460.297ZM197.703 507.572L198.785 507.433L198.786 507.445L197.703 507.572ZM213.143 559.903L214.111 559.402C214.372 559.905 214.203 560.525 213.723 560.826C213.243 561.128 212.611 561.012 212.271 560.558L213.143 559.903ZM190.188 509.212L191.24 508.925C191.245 508.941 191.249 508.957 191.253 508.974L190.188 509.212ZM182.4 457.018L181.313 457.1C181.281 456.682 181.492 456.283 181.854 456.074L182.4 457.018ZM237.6 429.828L238.585 429.359C238.716 429.634 238.726 429.951 238.612 430.234C238.499 430.517 238.272 430.739 237.987 430.847L237.6 429.828ZM236.234 426.958L235.944 425.907C236.454 425.767 236.991 426.012 237.218 426.49L236.234 426.958ZM170.376 448.956L169.287 449.002C169.268 448.553 169.526 448.139 169.938 447.958L170.376 448.956ZM179.667 509.212L178.612 509.489L178.612 509.489L179.667 509.212ZM218.198 586L219.038 585.304C219.412 585.755 219.362 586.421 218.926 586.812C218.49 587.203 217.822 587.18 217.415 586.759L218.198 586ZM216.892 584.675L216.117 585.443L216.117 585.443L216.892 584.675ZM176.798 533.123L175.88 533.712C175.865 533.689 175.851 533.665 175.838 533.641L176.798 533.123ZM151.521 441.442L150.445 441.619C150.357 441.086 150.672 440.569 151.187 440.403L151.521 441.442ZM235.414 424.089L236.389 423.601C236.549 423.922 236.542 424.3 236.37 424.614C236.198 424.927 235.883 425.137 235.527 425.174L235.414 424.089ZM234.321 421.903L234.379 420.814C234.771 420.835 235.121 421.064 235.296 421.415L234.321 421.903ZM170.376 424.499L170.599 425.567C170.305 425.628 169.999 425.565 169.753 425.394C169.507 425.223 169.342 424.957 169.298 424.661L170.376 424.499ZM185.543 360.145L184.74 359.406C185.093 359.023 185.666 358.943 186.11 359.213C186.554 359.484 186.745 360.03 186.567 360.519L185.543 360.145ZM180.351 413.978L180.358 415.069C179.864 415.072 179.429 414.743 179.299 414.267L180.351 413.978ZM233.911 417.394L234.777 418.057C234.508 418.409 234.052 418.563 233.624 418.446L233.911 417.394ZM235.687 415.071L236.246 414.135C236.513 414.294 236.699 414.56 236.758 414.865C236.817 415.171 236.742 415.487 236.554 415.734L235.687 415.071ZM200.299 398.675L200.105 399.749C199.64 399.664 199.282 399.29 199.218 398.822L200.299 398.675ZM200.209 398.015L199.129 398.162L199.129 398.162L200.209 398.015ZM221.204 310L220.316 309.366C220.646 308.905 221.274 308.773 221.761 309.062C222.248 309.352 222.433 309.966 222.185 310.476L221.204 310ZM210.683 391.98L210.041 392.862C209.82 392.701 209.668 392.463 209.614 392.195L210.683 391.98ZM237.873 411.792L238.761 412.426C238.592 412.663 238.335 412.822 238.048 412.869C237.76 412.915 237.466 412.845 237.231 412.674L237.873 411.792ZM239.923 408.923L240.706 408.164C241.073 408.542 241.116 409.128 240.81 409.557L239.923 408.923ZM231.588 400.315L230.805 401.074C230.459 400.716 230.398 400.17 230.658 399.746L231.588 400.315ZM243.475 390.067L243.08 389.051C243.544 388.87 244.071 389.027 244.362 389.432C244.652 389.836 244.631 390.386 244.311 390.768L243.475 390.067ZM244.158 403.731V404.821C244.024 404.821 243.89 404.796 243.764 404.747L244.158 403.731ZM254.953 403.731L255.228 404.786C255.138 404.809 255.045 404.821 254.953 404.821V403.731ZM255.636 390.067L254.776 390.738C254.466 390.342 254.468 389.785 254.781 389.39C255.093 388.996 255.635 388.866 256.092 389.077L255.636 390.067ZM267.113 400.315L268.105 399.862C268.279 400.244 268.219 400.692 267.95 401.015L267.113 400.315ZM260.828 407.83L259.852 408.317C259.658 407.929 259.713 407.463 259.991 407.13L260.828 407.83ZM262.194 410.562L262.821 411.455C262.562 411.637 262.235 411.698 261.927 411.62C261.619 411.542 261.361 411.334 261.219 411.05L262.194 410.562ZM288.428 392.117L289.49 392.363C289.429 392.625 289.275 392.855 289.055 393.009L288.428 392.117ZM279.41 310.137L278.41 310.573C278.177 310.038 278.406 309.413 278.931 309.157C279.456 308.9 280.09 309.103 280.368 309.616L279.41 310.137ZM282.812 316.362L283.768 315.837L283.768 315.837L282.812 316.362ZM299.495 398.675L300.58 398.789C300.53 399.259 300.184 399.644 299.722 399.742L299.495 398.675ZM265.883 414.798L264.893 415.255C264.673 414.778 264.824 414.211 265.254 413.907L265.883 414.798ZM266.703 416.574L266.806 417.66C266.345 417.704 265.907 417.452 265.713 417.031L266.703 416.574ZM319.307 414.251L320.373 414.481C320.258 415.016 319.764 415.383 319.219 415.339L319.307 414.251ZM314.252 360.145L313.259 360.597C313.026 360.085 313.22 359.48 313.707 359.199C314.195 358.919 314.816 359.055 315.141 359.513L314.252 360.145ZM329.008 424.909L330.095 424.999C330.069 425.308 329.914 425.591 329.667 425.778C329.42 425.965 329.105 426.039 328.8 425.98L329.008 424.909ZM266.703 421.903L265.682 421.52C265.828 421.13 266.184 420.857 266.599 420.817L266.703 421.903ZM265.883 424.089L265.747 425.171C265.416 425.129 265.122 424.938 264.95 424.653C264.777 424.367 264.745 424.019 264.862 423.706L265.883 424.089ZM348 441.442L348.393 440.424C348.883 440.613 349.169 441.125 349.072 441.642L348 441.442ZM346.238 450.941L347.31 451.139L347.31 451.139L346.238 450.941ZM328.598 521.099L329.596 521.538C329.587 521.56 329.577 521.581 329.566 521.602L328.598 521.099ZM289.073 577.298L289.898 578.011L289.898 578.011L289.073 577.298ZM281.596 586L282.427 586.706C282.048 587.152 281.384 587.22 280.923 586.858C280.462 586.497 280.369 585.836 280.712 585.362L281.596 586ZM329.008 448.956L329.412 447.944C329.841 448.115 330.115 448.537 330.098 448.998L329.008 448.956ZM263.014 426.958L262.011 426.529C262.216 426.053 262.727 425.786 263.234 425.89L263.014 426.958ZM261.784 429.828L261.359 430.832C261.092 430.719 260.881 430.504 260.773 430.235C260.664 429.966 260.667 429.665 260.782 429.398L261.784 429.828ZM316.574 456.745L317.256 455.893C317.537 456.118 317.689 456.467 317.662 456.825L316.574 456.745ZM316.305 460.407L317.393 460.486L317.393 460.486L316.305 460.407ZM286.925 559.903L287.847 560.485C287.541 560.97 286.911 561.135 286.407 560.863C285.902 560.59 285.694 559.973 285.932 559.45L286.925 559.903ZM305.37 460.297L305.978 459.391C306.289 459.6 306.472 459.954 306.46 460.329L305.37 460.297ZM260.828 432.014L259.899 431.442C260.202 430.95 260.837 430.779 261.345 431.054L260.828 432.014ZM259.735 433.79L259.147 434.709C258.646 434.389 258.494 433.725 258.806 433.218L259.735 433.79ZM282.416 451.279L283.194 450.515C283.354 450.677 283.459 450.886 283.494 451.112L282.416 451.279ZM282.416 482.022L283.505 482.08C283.496 482.244 283.45 482.404 283.371 482.548L282.416 482.022ZM249.76 514.541L250.143 515.562C249.887 515.658 249.603 515.654 249.349 515.551L249.76 514.541ZM217.515 482.022L216.504 482.432C216.47 482.347 216.446 482.259 216.434 482.168L217.515 482.022ZM216.422 451.552L215.332 451.51C215.343 451.218 215.472 450.942 215.688 450.746L216.422 451.552ZM264.302 440.941L263.663 441.825C263.644 441.812 263.626 441.797 263.608 441.782L264.302 440.941ZM264.245 440.894L263.338 441.499C263.038 441.049 263.113 440.447 263.514 440.085C263.916 439.722 264.522 439.709 264.939 440.053L264.245 440.894ZM264.302 440.941L264.941 440.057C264.96 440.071 264.978 440.085 264.996 440.1L264.302 440.941ZM276.815 452.235L277.636 451.517C277.812 451.718 277.908 451.976 277.906 452.244L276.815 452.235ZM275.586 476.829L276.667 476.969C276.651 477.092 276.615 477.211 276.558 477.322L275.586 476.829ZM249.625 504.019L250.077 505.012C249.771 505.151 249.419 505.141 249.121 504.986L249.625 504.019ZM223.938 476.829L222.911 477.196C222.881 477.111 222.861 477.022 222.852 476.932L223.938 476.829ZM223.856 475.97L222.771 476.074L222.771 476.074L223.856 475.97ZM222.435 452.781H221.345C221.345 452.505 221.45 452.238 221.639 452.036L222.435 452.781ZM234.732 440.894L234.065 440.032C234.498 439.696 235.114 439.735 235.503 440.122C235.891 440.51 235.931 441.126 235.596 441.56L234.732 440.894ZM226.671 452.781L225.584 452.689C225.597 452.533 225.644 452.382 225.721 452.246L226.671 452.781ZM227.491 467.811L228.568 467.641L228.568 467.641L227.491 467.811ZM249.625 493.362L250.041 494.37C249.773 494.481 249.471 494.48 249.204 494.368L249.625 493.362ZM271.623 467.811L270.548 467.628C270.551 467.613 270.554 467.598 270.557 467.583L271.623 467.811ZM272.443 453.191L273.357 452.596C273.463 452.759 273.524 452.948 273.533 453.143L272.443 453.191ZM266.436 444.168L267.342 443.561L267.342 443.561L266.436 444.168ZM239.653 431.497L240.61 433.273L238.689 434.307L237.733 432.531L239.653 431.497ZM193.638 459.421C205.934 450.308 228.444 436.718 238.144 431.071L239.242 432.956C229.54 438.604 207.125 452.141 194.937 461.173L193.638 459.421ZM196.621 507.712C194.101 488.203 193.288 467.992 193.197 460.31L195.378 460.284C195.468 467.905 196.277 488.028 198.785 507.433L196.621 507.712ZM212.174 560.404C202.471 541.659 197.766 517.467 196.62 507.699L198.786 507.445C199.917 517.08 204.577 540.983 214.111 559.402L212.174 560.404ZM191.253 508.974C196.348 531.739 208.57 552.003 214.015 559.248L212.271 560.558C206.694 553.137 194.304 532.594 189.124 509.45L191.253 508.974ZM183.488 456.936C185.451 483.002 189.485 502.489 191.24 508.925L189.136 509.499C187.339 502.909 183.284 483.282 181.313 457.1L183.488 456.936ZM237.987 430.847C219.053 438.029 193.41 451.911 182.946 457.962L181.854 456.074C192.341 450.01 218.108 436.055 237.213 428.808L237.987 430.847ZM237.218 426.49L238.585 429.359L236.615 430.297L235.249 427.427L237.218 426.49ZM169.938 447.958C188.928 439.616 221.87 429.778 235.944 425.907L236.523 428.01C222.451 431.881 189.645 441.683 170.815 449.955L169.938 447.958ZM178.612 509.489C172.139 484.801 169.699 458.896 169.287 449.002L171.466 448.911C171.874 458.692 174.298 484.435 180.722 508.935L178.612 509.489ZM217.359 586.696C191.19 555.14 181.957 522.245 178.612 509.489L180.722 508.935C184.041 521.593 193.176 554.117 219.038 585.304L217.359 586.696ZM217.666 583.906C218.176 584.42 218.617 584.865 218.981 585.241L217.415 586.759C217.062 586.395 216.631 585.96 216.117 585.443L217.666 583.906ZM177.716 532.534C197.875 563.971 212.172 578.37 217.666 583.906L216.117 585.443C210.545 579.828 196.143 565.309 175.88 533.712L177.716 532.534ZM152.597 441.264C161.064 492.611 167.736 514.051 177.758 532.604L175.838 533.641C165.638 514.757 158.921 493.021 150.445 441.619L152.597 441.264ZM235.527 425.174C198.86 428.99 171.745 436.077 151.855 442.48L151.187 440.403C171.194 433.963 198.459 426.839 235.301 423.004L235.527 425.174ZM235.296 421.415L236.389 423.601L234.438 424.577L233.345 422.391L235.296 421.415ZM170.154 423.431C188.671 419.574 220.717 420.085 234.379 420.814L234.263 422.992C220.598 422.263 188.809 421.773 170.599 425.567L170.154 423.431ZM186.345 360.883C178.297 369.624 174.034 381.978 172.06 393.978C170.089 405.965 170.424 417.458 171.455 424.337L169.298 424.661C168.233 417.558 167.899 405.837 169.908 393.624C171.915 381.424 176.283 368.591 184.74 359.406L186.345 360.883ZM179.299 414.267C176.618 404.492 177.025 393.354 178.535 383.464C180.046 373.56 182.676 364.813 184.518 359.77L186.567 360.519C184.766 365.45 182.177 374.056 180.691 383.793C179.203 393.544 178.837 404.336 181.402 413.69L179.299 414.267ZM233.624 418.446C228.347 417.007 218.412 416.132 208.025 415.635C197.679 415.139 187.015 415.023 180.358 415.069L180.343 412.888C187.031 412.842 197.736 412.958 208.129 413.456C218.48 413.951 228.653 414.83 234.198 416.342L233.624 418.446ZM236.554 415.734L234.777 418.057L233.045 416.732L234.821 414.409L236.554 415.734ZM200.493 397.602C205.198 398.452 212.166 401.423 218.87 404.716C225.612 408.027 232.217 411.731 236.246 414.135L235.128 416.008C231.141 413.629 224.589 409.955 217.909 406.674C211.19 403.374 204.473 400.538 200.105 399.749L200.493 397.602ZM201.29 397.868C201.32 398.09 201.35 398.31 201.38 398.529L199.218 398.822C199.189 398.604 199.159 398.384 199.129 398.162L201.29 397.868ZM222.091 310.634C208.345 329.879 202.513 346.929 200.426 361.513C198.336 376.112 199.988 388.291 201.29 397.869L199.129 398.162C197.826 388.577 196.13 376.131 198.266 361.204C200.405 346.264 206.373 328.887 220.316 309.366L222.091 310.634ZM209.614 392.195C202.556 357.015 213.464 323.454 220.223 309.524L222.185 310.476C215.553 324.146 204.819 357.208 211.753 391.766L209.614 392.195ZM237.231 412.674L210.041 392.862L211.326 391.099L238.516 410.911L237.231 412.674ZM240.81 409.557L238.761 412.426L236.986 411.158L239.035 408.289L240.81 409.557ZM232.372 399.556L240.706 408.164L239.139 409.681L230.805 401.074L232.372 399.556ZM243.871 391.084C238.28 393.258 233.958 398.528 232.519 400.884L230.658 399.746C232.224 397.183 236.866 391.467 243.08 389.051L243.871 391.084ZM243.764 404.747C241.748 403.965 240.384 402.817 239.608 401.393C238.836 399.979 238.713 398.42 238.933 396.937C239.366 394.016 241.165 391.126 242.639 389.367L244.311 390.768C242.962 392.378 241.44 394.9 241.09 397.257C240.919 398.413 241.038 399.461 241.522 400.348C242.001 401.226 242.907 402.075 244.553 402.714L243.764 404.747ZM254.953 404.821H244.158V402.64H254.953V404.821ZM256.495 389.396C260.082 393.992 260.942 397.573 260.141 400.264C259.343 402.946 257.024 404.318 255.228 404.786L254.677 402.675C256.024 402.324 257.544 401.346 258.051 399.642C258.555 397.947 258.185 395.106 254.776 390.738L256.495 389.396ZM266.121 400.768C265.075 398.478 263.074 396.375 260.911 394.654C258.759 392.944 256.539 391.684 255.18 391.058L256.092 389.077C257.601 389.772 259.972 391.121 262.268 392.947C264.552 394.764 266.855 397.123 268.105 399.862L266.121 400.768ZM259.991 407.13L266.276 399.615L267.95 401.015L261.664 408.529L259.991 407.13ZM261.219 411.05L259.852 408.317L261.803 407.342L263.17 410.075L261.219 411.05ZM289.055 393.009L262.821 411.455L261.567 409.67L287.8 391.225L289.055 393.009ZM280.41 309.7C295.172 343.521 292.627 378.848 289.49 392.363L287.365 391.87C290.423 378.697 292.943 343.867 278.41 310.573L280.41 309.7ZM281.856 316.886C280.767 314.9 279.631 312.829 278.452 310.657L280.368 309.616C281.546 311.784 282.679 313.851 283.768 315.837L281.856 316.886ZM298.41 398.561C300.696 376.85 300.218 363.173 297.37 351.591C294.519 339.996 289.279 330.426 281.856 316.886L283.768 315.837C291.165 329.327 296.558 339.149 299.489 351.071C302.423 363.006 302.876 376.97 300.58 398.789L298.41 398.561ZM265.254 413.907C279.911 403.548 293.975 398.733 299.268 397.608L299.722 399.742C294.722 400.804 280.931 405.498 266.513 415.689L265.254 413.907ZM265.713 417.031L264.893 415.255L266.873 414.341L267.693 416.117L265.713 417.031ZM319.219 415.339C307.2 414.364 279.311 416.473 266.806 417.66L266.6 415.488C279.053 414.307 307.147 412.171 319.395 413.164L319.219 415.339ZM315.244 359.692C324.452 379.884 322.493 404.617 320.373 414.481L318.241 414.022C320.311 404.392 322.195 380.192 313.259 360.597L315.244 359.692ZM327.921 424.819C329.148 409.963 329.035 398.957 326.867 389.176C324.704 379.417 320.478 370.806 313.362 360.776L315.141 359.513C322.372 369.705 326.753 378.583 328.997 388.704C331.235 398.804 331.328 410.068 330.095 424.999L327.921 424.819ZM266.599 420.817C291.766 418.399 318.811 421.822 329.215 423.838L328.8 425.98C318.527 423.988 291.702 420.597 266.807 422.989L266.599 420.817ZM264.862 423.706L265.682 421.52L267.724 422.286L266.904 424.472L264.862 423.706ZM347.607 442.459C326.215 434.206 284.158 427.495 265.747 425.171L266.02 423.007C284.408 425.328 326.718 432.062 348.393 440.424L347.607 442.459ZM345.165 450.742C345.739 447.639 346.325 444.472 346.928 441.241L349.072 441.642C348.469 444.87 347.884 448.035 347.31 451.139L345.165 450.742ZM327.6 520.66C335.598 502.46 339.88 479.333 345.165 450.742L347.31 451.139C342.041 479.643 337.72 503.055 329.596 521.538L327.6 520.66ZM288.247 576.585C302.427 560.179 314.027 546.757 327.63 520.596L329.566 521.602C315.841 547.996 304.105 561.573 289.898 578.011L288.247 576.585ZM280.765 585.294C283.348 582.253 285.836 579.375 288.247 576.585L289.898 578.011C287.486 580.802 285.004 583.674 282.427 586.706L280.765 585.294ZM330.098 448.998C327.464 517.598 304.557 556.06 282.48 586.638L280.712 585.362C302.631 555.001 325.306 516.948 327.918 448.915L330.098 448.998ZM263.234 425.89C281.379 429.629 314.94 442.164 329.412 447.944L328.603 449.969C314.109 444.181 280.72 431.721 262.794 428.027L263.234 425.89ZM260.782 429.398L262.011 426.529L264.016 427.388L262.787 430.257L260.782 429.398ZM315.893 457.596C313.928 456.025 310.48 453.953 306.114 451.61C301.769 449.279 296.577 446.713 291.172 444.152C280.361 439.031 268.728 433.948 261.359 430.832L262.209 428.823C269.597 431.947 281.259 437.043 292.106 442.181C297.528 444.75 302.755 447.333 307.146 449.688C311.516 452.033 315.121 454.185 317.256 455.893L315.893 457.596ZM315.218 460.328C315.307 459.102 315.396 457.88 315.487 456.664L317.662 456.825C317.572 458.04 317.483 459.26 317.393 460.486L315.218 460.328ZM286.002 559.321C310.87 519.871 313.148 488.697 315.218 460.328L317.393 460.486C315.318 488.935 313.014 520.561 287.847 560.485L286.002 559.321ZM306.46 460.329C305.53 491.908 302.861 512.615 299.434 527.59C296.004 542.583 291.82 551.797 287.917 560.355L285.932 559.45C289.818 550.93 293.928 541.876 297.308 527.103C300.693 512.312 303.352 491.757 304.28 460.265L306.46 460.329ZM261.345 431.054C271.13 436.331 295.2 452.16 305.978 459.391L304.763 461.203C293.953 453.951 269.982 438.19 260.31 432.974L261.345 431.054ZM258.806 433.218L259.899 431.442L261.757 432.585L260.664 434.362L258.806 433.218ZM281.638 452.044C275.39 445.688 264.057 437.846 259.147 434.709L260.322 432.871C265.25 436.019 276.762 443.972 283.194 450.515L281.638 452.044ZM281.327 481.963C282.31 463.723 281.73 453.97 281.338 451.446L283.494 451.112C283.922 453.871 284.489 463.812 283.505 482.08L281.327 481.963ZM249.377 513.519C256.569 510.823 263.419 504.973 269.092 498.656C274.752 492.354 279.152 485.687 281.461 481.496L283.371 482.548C280.989 486.873 276.494 493.679 270.715 500.113C264.95 506.532 257.818 512.684 250.143 515.562L249.377 513.519ZM218.525 481.612C225.921 499.833 242.736 510.503 250.172 513.53L249.349 515.551C241.573 512.384 224.193 501.374 216.504 482.432L218.525 481.612ZM217.512 451.595C216.968 465.411 218.012 477.562 218.596 481.875L216.434 482.168C215.834 477.737 214.783 465.458 215.332 451.51L217.512 451.595ZM240.18 434.743C232.649 438.939 221.709 448.216 217.156 452.359L215.688 450.746C220.244 446.6 231.347 437.167 239.119 432.837L240.18 434.743ZM263.608 441.782L263.551 441.735L264.939 440.053L264.996 440.1L263.608 441.782ZM263.663 441.825L263.663 441.825L264.94 440.057L264.941 440.057L263.663 441.825ZM275.995 452.953C273.027 449.561 266.538 444.201 263.608 441.782L264.996 440.1C267.864 442.468 274.523 447.959 277.636 451.517L275.995 452.953ZM274.504 476.689C275.26 470.858 275.679 457.918 275.725 452.226L277.906 452.244C277.86 457.937 277.442 470.995 276.667 476.969L274.504 476.689ZM249.173 503.026C255.09 500.332 260.604 495.352 265.089 490.149C269.567 484.955 272.947 479.624 274.613 476.336L276.558 477.322C274.809 480.775 271.329 486.252 266.741 491.573C262.161 496.886 256.403 502.131 250.077 505.012L249.173 503.026ZM224.965 476.462C227.288 482.956 232.003 488.793 236.973 493.439C241.937 498.08 247.076 501.459 250.13 503.052L249.121 504.986C245.889 503.3 240.589 499.806 235.483 495.033C230.384 490.265 225.398 484.147 222.911 477.196L224.965 476.462ZM224.942 475.867C224.972 476.176 224.999 476.463 225.024 476.726L222.852 476.932C222.828 476.67 222.8 476.383 222.771 476.074L224.942 475.867ZM223.526 452.781C223.526 461.037 224.484 471.077 224.942 475.867L222.771 476.074C222.315 471.303 221.345 461.158 221.345 452.781H223.526ZM235.4 441.757C232.092 444.318 225.929 450.646 223.231 453.527L221.639 452.036C224.315 449.178 230.595 442.718 234.065 440.032L235.4 441.757ZM225.721 452.246C228.164 447.914 232.174 442.427 233.868 440.228L235.596 441.56C233.92 443.734 229.987 449.123 227.621 453.317L225.721 452.246ZM226.413 467.981C225.504 462.221 225.348 455.476 225.584 452.689L227.758 452.874C227.538 455.461 227.682 462.028 228.568 467.641L226.413 467.981ZM249.204 494.368C241.803 491.266 236.328 486.026 232.604 480.922C228.898 475.841 226.858 470.797 226.413 467.981L228.568 467.641C228.943 470.017 230.797 474.742 234.367 479.636C237.919 484.506 243.101 489.445 250.047 492.356L249.204 494.368ZM272.698 467.995C271.446 475.331 267.397 481.254 262.893 485.655C258.392 490.053 253.375 492.995 250.041 494.37L249.209 492.353C252.298 491.08 257.077 488.289 261.368 484.095C265.656 479.905 269.396 474.376 270.548 467.628L272.698 467.995ZM273.533 453.143C273.864 460.661 273.121 466.028 272.69 468.04L270.557 467.583C270.946 465.768 271.678 460.587 271.353 453.239L273.533 453.143ZM267.342 443.561C269.377 446.597 271.909 450.375 273.357 452.596L271.53 453.787C270.091 451.581 267.569 447.817 265.53 444.775L267.342 443.561ZM265.153 440.289C265.718 441.137 266.486 442.283 267.342 443.561L265.53 444.775C264.674 443.499 263.904 442.349 263.338 441.499L265.153 440.289Z" fill="url(#paint2_linear_210_324)"/>
</g>
</g>
<defs>
<filter id="filter0_dddddd_210_324" x="-482.146" y="112.593" width="1463.81" height="1543.33" filterUnits="userSpaceOnUse" color-interpolation-filters="sRGB">
<feFlood flood-opacity="0" result="BackgroundImageFix"/>
<feColorMatrix in="SourceAlpha" type="matrix" values="0 0 0 0 0 0 0 0 0 0 0 0 0 0 0 0 0 0 127 0" result="hardAlpha"/>
<feOffset dy="12.0724"/>
<feGaussianBlur stdDeviation="8.7525"/>
<feColorMatrix type="matrix" values="0 0 0 0 0.0392157 0 0 0 0 0.0470588 0 0 0 0 0.0627451 0 0 0 0.0506062 0"/>
<feBlend mode="normal" in2="BackgroundImageFix" result="effect1_dropShadow_210_324"/>
<feColorMatrix in="SourceAlpha" type="matrix" values="0 0 0 0 0 0 0 0 0 0 0 0 0 0 0 0 0 0 127 0" result="hardAlpha"/>
<feOffset dy="29.0117"/>
<feGaussianBlur stdDeviation="21.0335"/>
<feColorMatrix type="matrix" values="0 0 0 0 0.0392157 0 0 0 0 0.0470588 0 0 0 0 0.0627451 0 0 0 0.0727007 0"/>
<feBlend mode="normal" in2="effect1_dropShadow_210_324" result="effect2_dropShadow_210_324"/>
<feColorMatrix in="SourceAlpha" type="matrix" values="0 0 0 0 0 0 0 0 0 0 0 0 0 0 0 0 0 0 127 0" result="hardAlpha"/>
<feOffset dy="54.6264"/>
<feGaussianBlur stdDeviation="39.6041"/>
<feColorMatrix type="matrix" values="0 0 0 0 0.0392157 0 0 0 0 0.0470588 0 0 0 0 0.0627451 0 0 0 0.09 0"/>
<feBlend mode="normal" in2="effect2_dropShadow_210_324" result="effect3_dropShadow_210_324"/>
<feColorMatrix in="SourceAlpha" type="matrix" values="0 0 0 0 0 0 0 0 0 0 0 0 0 0 0 0 0 0 127 0" result="hardAlpha"/>
<feOffset dy="97.4442"/>
<feGaussianBlur stdDeviation="70.647"/>
<feColorMatrix type="matrix" values="0 0 0 0 0.0392157 0 0 0 0 0.0470588 0 0 0 0 0.0627451 0 0 0 0.107299 0"/>
<feBlend mode="normal" in2="effect3_dropShadow_210_324" result="effect4_dropShadow_210_324"/>
<feColorMatrix in="SourceAlpha" type="matrix" values="0 0 0 0 0 0 0 0 0 0 0 0 0 0 0 0 0 0 127 0" result="hardAlpha"/>
<feOffset dy="182.259"/>
<feGaussianBlur stdDeviation="132.138"/>
<feColorMatrix type="matrix" values="0 0 0 0 0.0392157 0 0 0 0 0.0470588 0 0 0 0 0.0627451 0 0 0 0.129394 0"/>
<feBlend mode="normal" in2="effect4_dropShadow_210_324" result="effect5_dropShadow_210_324"/>
<feColorMatrix in="SourceAlpha" type="matrix" values="0 0 0 0 0 0 0 0 0 0 0 0 0 0 0 0 0 0 127 0" result="hardAlpha"/>
<feOffset dy="436.259"/>
<feGaussianBlur stdDeviation="316.288"/>
<feColorMatrix type="matrix" values="0 0 0 0 0.0392157 0 0 0 0 0.0470588 0 0 0 0 0.0627451 0 0 0 0.18 0"/>
<feBlend mode="normal" in2="effect5_dropShadow_210_324" result="effect6_dropShadow_210_324"/>
<feBlend mode="normal" in="SourceGraphic" in2="effect6_dropShadow_210_324" result="shape"/>
</filter>
<linearGradient id="paint0_linear_210_324" x1="250" y1="0" x2="250" y2="896" gradientUnits="userSpaceOnUse">
<stop stop-color="#272A31"/>
<stop offset="1" stop-color="#0A0C10"/>
</linearGradient>
<linearGradient id="paint1_linear_210_324" x1="151.521" y1="310" x2="412.315" y2="495.655" gradientUnits="userSpaceOnUse">
<stop stop-color="#EA1D22"/>
<stop offset="1" stop-color="#B31317"/>
</linearGradient>
<linearGradient id="paint2_linear_210_324" x1="151.521" y1="310" x2="412.315" y2="495.655" gradientUnits="userSpaceOnUse">
<stop stop-color="#EA1D22"/>
<stop offset="1" stop-color="#B31317"/>
</linearGradient>
<clipPath id="clip0_210_324">
<rect width="500" height="896" fill="white"/>
</clipPath>
</defs>
</svg>
